<?xml version="1.0" encoding="utf-8"?>
<!-- Generator: Adobe Illustrator 24.2.3, SVG Export Plug-In . SVG Version: 6.00 Build 0)  -->
<svg version="1.1" id="Layer_1" xmlns="http://www.w3.org/2000/svg" xmlns:xlink="http://www.w3.org/1999/xlink" x="0px" y="0px"
	 viewBox="0 0 369 368" style="enable-background:new 0 0 369 368;" xml:space="preserve">
<style type="text/css">
	.st0{opacity:8.000000e-02;fill:url(#SVGID_1_);enable-background:new    ;}
	.st1{opacity:8.000000e-02;fill:url(#SVGID_2_);enable-background:new    ;}
	.st2{opacity:8.000000e-02;fill:url(#SVGID_3_);enable-background:new    ;}
	.st3{opacity:8.000000e-02;fill:url(#SVGID_4_);enable-background:new    ;}
	.st4{opacity:8.000000e-02;fill:url(#SVGID_5_);enable-background:new    ;}
	.st5{fill:none;stroke:url(#SVGID_6_);stroke-width:15;stroke-opacity:0.5;}
	.st6{fill:none;stroke:url(#SVGID_7_);stroke-width:15;stroke-opacity:0.5;}
	.st7{fill:none;stroke:#FFFFFF;stroke-width:2;stroke-linecap:round;stroke-linejoin:round;}
	.st8{fill:#FFFFFF;}
	.st9{fill:#41415A;}
	.st10{fill:#FF6158;}
</style>
<linearGradient id="SVGID_1_" gradientUnits="userSpaceOnUse" x1="152.0448" y1="71.0733" x2="402.4489" y2="288.8434">
	<stop  offset="0" style="stop-color:#FFFFFF"/>
	<stop  offset="1" style="stop-color:#FF6158"/>
</linearGradient>
<path class="st0" d="M369,17V351c-24.5,10.9-51.8,17-80.6,17c-106,0-192-82.4-192-184s86-184,192-184C317.2,0,344.5,6.1,369,17z"/>
<linearGradient id="SVGID_2_" gradientUnits="userSpaceOnUse" x1="178.5733" y1="84.4176" x2="387.0951" y2="279.4241">
	<stop  offset="0" style="stop-color:#FFFFFF"/>
	<stop  offset="1" style="stop-color:#FF6158"/>
</linearGradient>
<path class="st1" d="M369,51.9v264.2c-23.7,13.3-51.2,20.9-80.6,20.9c-88.1,0-159.6-68.5-159.6-153S200.2,31,288.4,31
	C317.8,31,345.3,38.6,369,51.9z"/>
<linearGradient id="SVGID_3_" gradientUnits="userSpaceOnUse" x1="378.1006" y1="270.9759" x2="196.389" y2="96.8355">
	<stop  offset="0" style="stop-color:#FF6158"/>
	<stop  offset="1" style="stop-color:#FFFFFF"/>
</linearGradient>
<path class="st2" d="M369,79.5v209.1c-22.5,16-50.4,25.5-80.6,25.5c-74.9,0-135.6-58.2-135.6-130S213.5,54,288.4,54
	C318.6,54,346.5,63.5,369,79.5z"/>
<linearGradient id="SVGID_4_" gradientUnits="userSpaceOnUse" x1="358.357" y1="247.0967" x2="212.645" y2="115.6459">
	<stop  offset="0" style="stop-color:#FF6158"/>
	<stop  offset="1" style="stop-color:#FFFFFF"/>
</linearGradient>
<path class="st3" d="M369,115.4v137.2c-19.7,21.3-48.5,34.7-80.6,34.7c-59.5,0-107.8-46.3-107.8-103.3S228.9,80.7,288.4,80.7
	C320.5,80.7,349.3,94.1,369,115.4z"/>
<linearGradient id="SVGID_5_" gradientUnits="userSpaceOnUse" x1="346.3187" y1="236.2321" x2="225.6652" y2="127.3874">
	<stop  offset="0" style="stop-color:#FF6158"/>
	<stop  offset="1" style="stop-color:#FFFFFF"/>
</linearGradient>
<path class="st4" d="M369,147.3v73.3c-14.3,28.9-45.1,48.9-80.6,48.9c-49.2,0-89.2-38.3-89.2-85.5s39.9-85.5,89.2-85.5
	C324,98.5,354.7,118.5,369,147.3z"/>
<linearGradient id="SVGID_6_" gradientUnits="userSpaceOnUse" x1="0" y1="135.3" x2="239.7" y2="135.3" gradientTransform="matrix(1 0 0 -1 0 368)">
	<stop  offset="0" style="stop-color:#D4009A"/>
	<stop  offset="0.5515" style="stop-color:#FF6158"/>
</linearGradient>
<path class="st5" d="M239.7,183.5h-59.8c-77.1,0-69.4,98.4-141.4,98.4H0"/>
<linearGradient id="SVGID_7_" gradientUnits="userSpaceOnUse" x1="0" y1="233.7" x2="239.7" y2="233.7" gradientTransform="matrix(1 0 0 -1 0 368)">
	<stop  offset="0" style="stop-color:#D4009A"/>
	<stop  offset="0.5515" style="stop-color:#FF6158"/>
</linearGradient>
<path class="st6" d="M239.7,183.5h-59.8c-77.1,0-69.4-98.4-141.4-98.4H0"/>
<g>
	<path class="st7" d="M24.2,90.7l5-5l-5-5"/>
	<path class="st7" d="M17.2,90.7l5-5l-5-5"/>
</g>
<g>
	<path class="st7" d="M24.2,286.4l5-5l-5-5"/>
	<path class="st7" d="M17.2,286.4l5-5l-5-5"/>
</g>
<circle class="st8" cx="64.9" cy="90.1" r="4.4"/>
<circle class="st8" cx="167.9" cy="182.6" r="4.4"/>
<circle class="st8" cx="85" cy="261.9" r="4.4"/>
<path class="st9" d="M103.8,75.1H64.7c-3.2,0-5.9-2.7-5.9-5.9V56.9c0-3.2,2.7-5.9,5.9-5.9h39.2c3.2,0,5.9,2.7,5.9,5.9v12.2
	C109.7,72.4,107.1,75.1,103.8,75.1z"/>
<g>
	<path class="st8" d="M78.4,67.1l-1.9-3.5h-1.3v3.5H74v-8.5h3.2c0.8,0,1.4,0.2,1.9,0.7s0.7,1.1,0.7,1.8c0,0.6-0.2,1.1-0.6,1.6
		s-0.9,0.7-1.5,0.8l2,3.6H78.4z M75.2,62.6H77c0.5,0,0.9-0.1,1.2-0.4c0.3-0.3,0.4-0.6,0.4-1.1c0-0.4-0.1-0.8-0.4-1.1
		s-0.7-0.4-1.2-0.4h-1.8V62.6z"/>
	<path class="st8" d="M82.6,67.1h-1.2v-8.5h5.2v1.1h-4v2.7h3.6v1.1h-3.6V67.1z"/>
	<path class="st8" d="M87.5,62.9c0-0.7,0.1-1.3,0.4-1.9c0.2-0.6,0.6-1,1-1.4s0.9-0.6,1.4-0.8s1-0.3,1.6-0.3s1.1,0.1,1.6,0.3
		s1,0.5,1.4,0.8c0.4,0.4,0.7,0.8,1,1.4c0.2,0.6,0.4,1.2,0.4,1.9c0,1.3-0.4,2.3-1.2,3.1l1,1.1L95,67.8l-1-1.1
		c-0.7,0.4-1.4,0.6-2.2,0.6c-0.7,0-1.4-0.2-2.1-0.5c-0.6-0.3-1.2-0.8-1.6-1.5S87.5,63.8,87.5,62.9z M89.6,60.4
		c-0.6,0.6-0.9,1.4-0.9,2.5s0.3,1.9,0.9,2.5s1.3,0.9,2.2,0.9c0.5,0,1-0.1,1.5-0.4l-1.5-1.7l0.8-0.7l1.5,1.7c0.5-0.6,0.8-1.4,0.8-2.3
		c0-1.1-0.3-1.9-0.9-2.5s-1.3-0.9-2.2-0.9C90.9,59.5,90.2,59.8,89.6,60.4z"/>
</g>
<path class="st9" d="M140.5,298.4h-39.2c-3.2,0-5.9-2.7-5.9-5.9v-12.2c0-3.2,2.7-5.9,5.9-5.9h39.2c3.2,0,5.9,2.7,5.9,5.9v12.2
	C146.4,295.7,143.8,298.4,140.5,298.4z"/>
<g>
	<path class="st8" d="M108.6,290.4h-3v-8.5h3c1.1,0,2.1,0.4,2.9,1.1s1.2,1.8,1.2,3.1c0,1.3-0.4,2.4-1.2,3.1S109.7,290.4,108.6,290.4
		z M106.8,289.4h1.7c0.8,0,1.5-0.3,2.1-0.8c0.5-0.6,0.8-1.3,0.8-2.4c0-1-0.3-1.8-0.8-2.4s-1.2-0.8-2.1-0.8h-1.8v6.4H106.8z"/>
	<path class="st8" d="M118.7,290.4l-1.9-3.5h-1.3v3.5h-1.2v-8.5h3.2c0.8,0,1.4,0.2,1.9,0.7s0.7,1.1,0.7,1.8c0,0.6-0.2,1.1-0.6,1.6
		c-0.4,0.4-0.9,0.7-1.5,0.8l2,3.6H118.7z M115.4,285.9h1.8c0.5,0,0.9-0.1,1.2-0.4s0.4-0.6,0.4-1s-0.1-0.8-0.4-1.1
		c-0.3-0.3-0.7-0.4-1.2-0.4h-1.8V285.9z"/>
	<path class="st8" d="M121.1,286.2c0-0.7,0.1-1.3,0.4-1.9c0.2-0.6,0.6-1,1-1.4s0.9-0.6,1.4-0.8c0.5-0.2,1-0.3,1.6-0.3
		s1.1,0.1,1.6,0.3c0.5,0.2,1,0.5,1.4,0.8c0.4,0.4,0.7,0.8,1,1.4s0.4,1.2,0.4,1.9c0,0.9-0.2,1.7-0.6,2.4c-0.4,0.7-1,1.2-1.6,1.5
		s-1.3,0.5-2.1,0.5s-1.4-0.2-2.1-0.5c-0.6-0.3-1.2-0.8-1.6-1.5C121.3,287.9,121.1,287.1,121.1,286.2z M123.2,283.7
		c-0.6,0.6-0.9,1.4-0.9,2.5s0.3,1.9,0.9,2.5s1.3,0.9,2.2,0.9c0.8,0,1.6-0.3,2.2-0.9c0.6-0.6,0.9-1.4,0.9-2.5s-0.3-1.9-0.9-2.5
		s-1.3-0.9-2.2-0.9C124.5,282.8,123.8,283.1,123.2,283.7z"/>
	<path class="st8" d="M134.3,286.9h-1.9v3.5h-1.2v-8.5h3.1c0.8,0,1.4,0.2,1.9,0.7s0.7,1.1,0.7,1.8c0,0.7-0.2,1.3-0.7,1.8
		C135.8,286.7,135.1,286.9,134.3,286.9z M132.4,285.9h1.7c0.5,0,0.9-0.1,1.2-0.4s0.4-0.6,0.4-1s-0.1-0.8-0.4-1.1
		c-0.3-0.3-0.7-0.4-1.2-0.4h-1.7V285.9z"/>
</g>
<path class="st10" d="M287.4,256c39.8,0,72-32.2,72-72s-32.2-72-72-72s-72,32.2-72,72S247.6,256,287.4,256z"/>
<g>
	<path class="st8" d="M233.4,172.2h2.9l7.5,17h-2.6l-2.1-4.6h-8.6l-2.1,4.6h-2.5L233.4,172.2z M238.3,182.6l-3.6-8.2l-3.6,8.2H238.3
		z"/>
	<path class="st8" d="M266.4,173.3c1.1,0.7,1.7,1.9,1.7,3.2c0,0.9-0.3,1.8-0.9,2.5s-1.5,1.1-2.6,1.4c2.9,0.5,4.4,1.8,4.4,4
		c0,1.5-0.6,2.6-1.9,3.4c-1.2,0.8-3,1.2-5.3,1.2h-7.2v-17h7C263.6,172.2,265.2,172.6,266.4,173.3z M261.6,179.5
		c1.3,0,2.2-0.2,2.9-0.7c0.7-0.4,1.1-1.2,1-2c0-0.8-0.4-1.6-1-2c-0.7-0.5-1.7-0.7-3-0.7H257v5.4H261.6z M261.7,187.2
		c1.5,0,2.7-0.3,3.5-0.8s1.2-1.2,1.2-2.1c0-0.9-0.4-1.7-1.2-2.2c-0.8-0.5-2-0.8-3.4-0.8H257v5.8h4.7V187.2z"/>
	<path class="st8" d="M285.9,172.2h2.9l7.5,17h-2.6l-2.1-4.6H283l-2.1,4.6h-2.5L285.9,172.2z M290.9,182.6l-3.6-8.2l-3.6,8.2H290.9z
		"/>
	<path class="st8" d="M307,172.2h2.3l10.6,13.1v-13.1h2.4v17H320L309.4,176v13.1H307V172.2z"/>
	<path class="st8" d="M340.6,172.2h2.9l7.5,17h-2.6l-2.1-4.6h-8.6l-2.1,4.6H333L340.6,172.2z M345.5,182.6l-3.6-8.2l-3.6,8.2H345.5z
		"/>
</g>
</svg>
