<?xml version="1.0" encoding="utf-8"?>
<!-- Generator: Adobe Illustrator 24.2.3, SVG Export Plug-In . SVG Version: 6.00 Build 0)  -->
<svg version="1.1" id="Layer_1" xmlns="http://www.w3.org/2000/svg" xmlns:xlink="http://www.w3.org/1999/xlink" x="0px" y="0px"
	 viewBox="0 0 578.9 368" style="enable-background:new 0 0 578.9 368;" xml:space="preserve">
<style type="text/css">
	.st0{opacity:8.000000e-02;fill:url(#SVGID_1_);enable-background:new    ;}
	.st1{opacity:8.000000e-02;fill:url(#SVGID_2_);enable-background:new    ;}
	.st2{opacity:8.000000e-02;fill:url(#SVGID_3_);enable-background:new    ;}
	.st3{opacity:8.000000e-02;fill:url(#SVGID_4_);enable-background:new    ;}
	.st4{opacity:8.000000e-02;fill:url(#SVGID_5_);enable-background:new    ;}
	.st5{fill:none;stroke:url(#SVGID_6_);stroke-width:15;stroke-opacity:0.5;}
	.st6{fill:none;stroke:url(#SVGID_7_);stroke-width:15;stroke-opacity:0.5;}
	.st7{fill:none;stroke:url(#SVGID_8_);stroke-width:15;stroke-opacity:0.5;}
	.st8{fill:none;stroke:url(#SVGID_9_);stroke-width:15;stroke-opacity:0.5;}
	.st9{fill:none;stroke:url(#SVGID_10_);stroke-width:15;stroke-opacity:0.5;}
	.st10{fill:none;stroke:#FFFFFF;stroke-width:2;stroke-linecap:round;stroke-linejoin:round;}
	.st11{fill:#FFFFFF;}
	.st12{fill:#41415A;}
	.st13{fill:#FF6158;}
</style>
<linearGradient id="SVGID_1_" gradientUnits="userSpaceOnUse" x1="155.2935" y1="299.7621" x2="418.3584" y2="70.9813">
	<stop  offset="0" style="stop-color:#FFFFFF"/>
	<stop  offset="1" style="stop-color:#FF6158"/>
</linearGradient>
<path class="st0" d="M288.4,368c106,0,192-82.4,192-184c0-101.6-86-184-192-184s-192,82.4-192,184C96.4,285.6,182.4,368,288.4,368z"
	/>
<linearGradient id="SVGID_2_" gradientUnits="userSpaceOnUse" x1="180.2864" y1="285.1094" x2="393.903" y2="85.3383">
	<stop  offset="0" style="stop-color:#FFFFFF"/>
	<stop  offset="1" style="stop-color:#FF6158"/>
</linearGradient>
<path class="st1" d="M288.4,337c88.2,0,159.6-68.5,159.6-153S376.6,31,288.4,31S128.8,99.5,128.8,184S200.2,337,288.4,337z"/>
<linearGradient id="SVGID_3_" gradientUnits="userSpaceOnUse" x1="380.3228" y1="95.9106" x2="196.941" y2="271.6515">
	<stop  offset="0" style="stop-color:#FF6158"/>
	<stop  offset="1" style="stop-color:#FFFFFF"/>
</linearGradient>
<path class="st2" d="M288.4,314c74.9,0,135.6-58.2,135.6-130S363.3,54,288.4,54s-135.6,58.2-135.6,130S213.5,314,288.4,314z"/>
<linearGradient id="SVGID_4_" gradientUnits="userSpaceOnUse" x1="358.3493" y1="120.8999" x2="212.6233" y2="252.3634">
	<stop  offset="0" style="stop-color:#FF6158"/>
	<stop  offset="1" style="stop-color:#FFFFFF"/>
</linearGradient>
<path class="st3" d="M288.4,287.3c59.5,0,107.8-46.3,107.8-103.3S347.9,80.7,288.4,80.7S180.6,126.9,180.6,184
	S228.9,287.3,288.4,287.3z"/>
<linearGradient id="SVGID_5_" gradientUnits="userSpaceOnUse" x1="346.315" y1="131.7564" x2="225.6613" y2="240.6014">
	<stop  offset="0" style="stop-color:#FF6158"/>
	<stop  offset="1" style="stop-color:#FFFFFF"/>
</linearGradient>
<path class="st4" d="M288.4,269.5c49.3,0,89.2-38.3,89.2-85.5s-40-85.5-89.2-85.5s-89.2,38.3-89.2,85.5S239.1,269.5,288.4,269.5z"/>
<linearGradient id="SVGID_6_" gradientUnits="userSpaceOnUse" x1="282.1167" y1="254.0702" x2="578.9043" y2="254.0702">
	<stop  offset="0.4684" style="stop-color:#FF6158"/>
	<stop  offset="1" style="stop-color:#FFCF15"/>
</linearGradient>
<path class="st5" d="M282.1,183.3h74c95.5,0,85.9,141.6,175,141.6h47.7"/>
<linearGradient id="SVGID_7_" gradientUnits="userSpaceOnUse" x1="325.906" y1="183.5045" x2="578.9043" y2="183.5045">
	<stop  offset="0.4684" style="stop-color:#FF6158"/>
	<stop  offset="1" style="stop-color:#FFCF15"/>
</linearGradient>
<path class="st6" d="M325.9,183.5l253,0"/>
<linearGradient id="SVGID_8_" gradientUnits="userSpaceOnUse" x1="282.1167" y1="112.6977" x2="578.9043" y2="112.6977">
	<stop  offset="0.4684" style="stop-color:#FF6158"/>
	<stop  offset="1" style="stop-color:#FFCF15"/>
</linearGradient>
<path class="st7" d="M282.1,183.5h74c95.5,0,85.9-141.6,175-141.6h47.7"/>
<linearGradient id="SVGID_9_" gradientUnits="userSpaceOnUse" x1="0" y1="232.7149" x2="239.6625" y2="232.7149">
	<stop  offset="0" style="stop-color:#D4009A"/>
	<stop  offset="0.5515" style="stop-color:#FF6158"/>
</linearGradient>
<path class="st8" d="M239.7,183.5h-59.8c-77.1,0-69.4,98.4-141.4,98.4H0"/>
<linearGradient id="SVGID_10_" gradientUnits="userSpaceOnUse" x1="0" y1="134.3398" x2="239.6625" y2="134.3398">
	<stop  offset="0" style="stop-color:#D4009A"/>
	<stop  offset="0.5515" style="stop-color:#FF6158"/>
</linearGradient>
<path class="st9" d="M239.7,183.5h-59.8c-77.1,0-69.4-98.4-141.4-98.4H0"/>
<g>
	<path class="st10" d="M24.2,90.7l5-5l-5-5"/>
	<path class="st10" d="M17.2,90.7l5-5l-5-5"/>
</g>
<g>
	<path class="st10" d="M24.2,286.4l5-5l-5-5"/>
	<path class="st10" d="M17.2,286.4l5-5l-5-5"/>
</g>
<circle class="st11" cx="64.9" cy="90.1" r="4.4"/>
<circle class="st11" cx="536" cy="41.9" r="4.4"/>
<circle class="st11" cx="531.7" cy="184.3" r="4.4"/>
<circle class="st11" cx="497.6" cy="317.6" r="4.4"/>
<circle class="st11" cx="452.4" cy="102.8" r="4.4"/>
<circle class="st11" cx="443.4" cy="184" r="4.4"/>
<circle class="st11" cx="167.9" cy="182.6" r="4.4"/>
<circle class="st11" cx="85" cy="261.9" r="4.4"/>
<g>
	<path class="st10" d="M559.7,178.5l-5,5l5,5"/>
	<path class="st10" d="M566.7,178.5l-5,5l5,5"/>
</g>
<g>
	<path class="st10" d="M559.7,320.2l-5,5l5,5"/>
	<path class="st10" d="M566.7,320.2l-5,5l5,5"/>
</g>
<g>
	<path class="st10" d="M559.7,36.9l-5,5l5,5"/>
	<path class="st10" d="M566.7,36.9l-5,5l5,5"/>
</g>
<path class="st12" d="M103.8,75.1H64.7c-3.2,0-5.9-2.7-5.9-5.9V56.9c0-3.2,2.7-5.9,5.9-5.9h39.2c3.2,0,5.9,2.7,5.9,5.9v12.2
	C109.7,72.4,107.1,75.1,103.8,75.1z"/>
<g>
	<path class="st11" d="M78.4,67.1l-1.9-3.5h-1.3v3.5H74v-8.5h3.2c0.8,0,1.4,0.2,1.9,0.7c0.5,0.5,0.7,1.1,0.7,1.8
		c0,0.6-0.2,1.1-0.6,1.6s-0.9,0.7-1.5,0.8l2,3.6H78.4z M75.2,62.6H77c0.5,0,0.9-0.1,1.2-0.4c0.3-0.3,0.4-0.6,0.4-1.1
		c0-0.4-0.1-0.8-0.4-1.1s-0.7-0.4-1.2-0.4h-1.8V62.6z"/>
	<path class="st11" d="M82.6,67.1h-1.2v-8.5h5.2v1.1h-4v2.7h3.6v1.1h-3.6V67.1z"/>
	<path class="st11" d="M87.5,62.9c0-0.7,0.1-1.3,0.4-1.9c0.2-0.6,0.6-1,1-1.4c0.4-0.4,0.9-0.6,1.4-0.8c0.5-0.2,1-0.3,1.6-0.3
		s1.1,0.1,1.6,0.3c0.5,0.2,1,0.5,1.4,0.8c0.4,0.4,0.7,0.8,1,1.4c0.2,0.6,0.4,1.2,0.4,1.9c0,1.3-0.4,2.3-1.2,3.1l1,1.1L95,67.8
		l-1-1.1c-0.7,0.4-1.4,0.6-2.2,0.6c-0.7,0-1.4-0.2-2.1-0.5c-0.6-0.3-1.2-0.8-1.6-1.5S87.5,63.8,87.5,62.9z M89.6,60.4
		c-0.6,0.6-0.9,1.4-0.9,2.5c0,1.1,0.3,1.9,0.9,2.5c0.6,0.6,1.3,0.9,2.2,0.9c0.5,0,1-0.1,1.5-0.4l-1.5-1.7l0.8-0.7l1.5,1.7
		c0.5-0.6,0.8-1.4,0.8-2.3c0-1.1-0.3-1.9-0.9-2.5s-1.3-0.9-2.2-0.9C90.9,59.5,90.2,59.8,89.6,60.4z"/>
</g>
<path class="st12" d="M140.5,298.4h-39.2c-3.2,0-5.9-2.7-5.9-5.9v-12.2c0-3.2,2.7-5.9,5.9-5.9h39.2c3.2,0,5.9,2.7,5.9,5.9v12.2
	C146.4,295.7,143.8,298.4,140.5,298.4z"/>
<g>
	<path class="st11" d="M108.6,290.4h-3v-8.5h3c1.1,0,2.1,0.4,2.9,1.1s1.2,1.8,1.2,3.1c0,1.3-0.4,2.4-1.2,3.1
		S109.7,290.4,108.6,290.4z M106.8,289.4h1.7c0.8,0,1.5-0.3,2.1-0.8c0.5-0.6,0.8-1.3,0.8-2.4c0-1-0.3-1.8-0.8-2.4
		c-0.5-0.6-1.2-0.8-2.1-0.8h-1.8V289.4z"/>
	<path class="st11" d="M118.7,290.4l-1.9-3.5h-1.3v3.5h-1.2v-8.5h3.2c0.8,0,1.4,0.2,1.9,0.7c0.5,0.5,0.7,1.1,0.7,1.8
		c0,0.6-0.2,1.1-0.6,1.6c-0.4,0.4-0.9,0.7-1.5,0.8l2,3.6H118.7z M115.4,285.9h1.8c0.5,0,0.9-0.1,1.2-0.4s0.4-0.6,0.4-1
		c0-0.4-0.1-0.8-0.4-1.1c-0.3-0.3-0.7-0.4-1.2-0.4h-1.8V285.9z"/>
	<path class="st11" d="M121.1,286.2c0-0.7,0.1-1.3,0.4-1.9c0.2-0.6,0.6-1,1-1.4c0.4-0.4,0.9-0.6,1.4-0.8c0.5-0.2,1-0.3,1.6-0.3
		s1.1,0.1,1.6,0.3c0.5,0.2,1,0.5,1.4,0.8c0.4,0.4,0.7,0.8,1,1.4s0.4,1.2,0.4,1.9c0,0.9-0.2,1.7-0.6,2.4c-0.4,0.7-1,1.2-1.6,1.5
		c-0.6,0.3-1.3,0.5-2.1,0.5s-1.4-0.2-2.1-0.5c-0.6-0.3-1.2-0.8-1.6-1.5C121.3,287.9,121.1,287.1,121.1,286.2z M123.2,283.7
		c-0.6,0.6-0.9,1.4-0.9,2.5s0.3,1.9,0.9,2.5c0.6,0.6,1.3,0.9,2.2,0.9c0.8,0,1.6-0.3,2.2-0.9c0.6-0.6,0.9-1.4,0.9-2.5
		s-0.3-1.9-0.9-2.5s-1.3-0.9-2.2-0.9C124.5,282.8,123.8,283.1,123.2,283.7z"/>
	<path class="st11" d="M134.3,286.9h-1.9v3.5h-1.2v-8.5h3.1c0.8,0,1.4,0.2,1.9,0.7c0.5,0.5,0.7,1.1,0.7,1.8c0,0.7-0.2,1.3-0.7,1.8
		C135.8,286.7,135.1,286.9,134.3,286.9z M132.4,285.9h1.7c0.5,0,0.9-0.1,1.2-0.4c0.3-0.3,0.4-0.6,0.4-1c0-0.4-0.1-0.8-0.4-1.1
		c-0.3-0.3-0.7-0.4-1.2-0.4h-1.7V285.9z"/>
</g>
<path class="st12" d="M483.8,354.2h-39.2c-3.2,0-5.9-2.7-5.9-5.9v-12.2c0-3.2,2.7-5.9,5.9-5.9h39.2c3.2,0,5.9,2.7,5.9,5.9v12.2
	C489.7,351.5,487,354.2,483.8,354.2z"/>
<g>
	<path class="st11" d="M455.9,342c0-0.7,0.1-1.3,0.4-1.9c0.2-0.6,0.6-1,1-1.4c0.4-0.4,0.9-0.6,1.4-0.8c0.5-0.2,1-0.3,1.6-0.3
		s1.1,0.1,1.6,0.3c0.5,0.2,1,0.5,1.4,0.8c0.4,0.4,0.7,0.8,1,1.4s0.4,1.2,0.4,1.9c0,1.3-0.4,2.3-1.2,3.1l1,1.1l-0.8,0.7l-1-1.1
		c-0.7,0.4-1.4,0.6-2.2,0.6c-0.7,0-1.4-0.2-2.1-0.5c-0.6-0.3-1.2-0.8-1.6-1.5C456.1,343.7,455.9,342.9,455.9,342z M458,339.5
		c-0.6,0.6-0.9,1.4-0.9,2.5s0.3,1.9,0.9,2.5c0.6,0.6,1.3,0.9,2.2,0.9c0.5,0,1-0.1,1.5-0.4l-1.5-1.7l0.8-0.7l1.5,1.7
		c0.5-0.6,0.8-1.4,0.8-2.3c0-1.1-0.3-1.9-0.9-2.5c-0.6-0.6-1.3-0.9-2.2-0.9S458.6,338.9,458,339.5z"/>
	<path class="st11" d="M471.7,346.3l-0.9-2.4H467l-0.9,2.4h-1.3l3.4-8.5h1.4l3.4,8.5H471.7z M468.9,339l-1.5,3.8h2.9L468.9,339z"/>
</g>
<path class="st12" d="M513.4,136.1h-39.2c-3.2,0-5.9-2.7-5.9-5.9v-27.3c0-3.2,2.7-5.9,5.9-5.9h39.2c3.2,0,5.9,2.7,5.9,5.9v27.3
	C519.3,133.5,516.6,136.1,513.4,136.1z"/>
<g>
	<path class="st11" d="M486.3,113.1h-5.2v-8.5h1.2v7.4h4V113.1z"/>
	<path class="st11" d="M486.7,108.8c0-0.7,0.1-1.3,0.4-1.9c0.2-0.6,0.6-1,1-1.4c0.4-0.4,0.9-0.6,1.4-0.8c0.5-0.2,1-0.3,1.6-0.3
		s1.1,0.1,1.6,0.3c0.5,0.2,1,0.5,1.4,0.8c0.4,0.4,0.7,0.8,1,1.4c0.2,0.6,0.4,1.2,0.4,1.9c0,0.9-0.2,1.7-0.6,2.4s-1,1.2-1.6,1.5
		c-0.6,0.3-1.3,0.5-2.1,0.5c-0.7,0-1.4-0.2-2.1-0.5c-0.6-0.3-1.2-0.8-1.6-1.5S486.7,109.8,486.7,108.8z M488.8,106.4
		c-0.6,0.6-0.9,1.4-0.9,2.5c0,1.1,0.3,1.9,0.9,2.5c0.6,0.6,1.3,0.9,2.2,0.9s1.6-0.3,2.2-0.9c0.6-0.6,0.9-1.4,0.9-2.5
		c0-1.1-0.3-1.9-0.9-2.5c-0.6-0.6-1.3-0.9-2.2-0.9S489.4,105.8,488.8,106.4z"/>
	<path class="st11" d="M504.4,111.3l1.8-6.7h1.2l-2.4,8.5h-1.2l-2.2-6.9l-2.2,6.9h-1.2l-2.5-8.5h1.2l1.9,6.7l2.1-6.7h1.2
		L504.4,111.3z"/>
	<path class="st11" d="M488.8,127.5h-1.2v-6.6l-2.9,6.6h-1.1l-2.9-6.6v6.6h-1.2V119h1.6l3,6.9l3-6.9h1.6V127.5z"/>
	<path class="st11" d="M490.4,123.2c0-0.7,0.1-1.3,0.4-1.9c0.2-0.6,0.6-1,1-1.4c0.4-0.4,0.9-0.6,1.4-0.8c0.5-0.2,1-0.3,1.6-0.3
		s1.1,0.1,1.6,0.3c0.5,0.2,1,0.5,1.4,0.8c0.4,0.4,0.7,0.8,1,1.4c0.2,0.6,0.4,1.2,0.4,1.9c0,0.9-0.2,1.7-0.6,2.4s-1,1.2-1.6,1.5
		c-0.6,0.3-1.3,0.5-2.1,0.5c-0.7,0-1.4-0.2-2.1-0.5c-0.6-0.3-1.2-0.8-1.6-1.5S490.4,124.2,490.4,123.2z M492.5,120.8
		c-0.6,0.6-0.9,1.4-0.9,2.5c0,1.1,0.3,1.9,0.9,2.5c0.6,0.6,1.3,0.9,2.2,0.9s1.6-0.3,2.2-0.9c0.6-0.6,0.9-1.4,0.9-2.5
		c0-1.1-0.3-1.9-0.9-2.5c-0.6-0.6-1.3-0.9-2.2-0.9S493.1,120.2,492.5,120.8z"/>
	<path class="st11" d="M500,123.2c0-0.7,0.1-1.3,0.4-1.9c0.2-0.6,0.6-1,1-1.4c0.4-0.4,0.9-0.6,1.4-0.8c0.5-0.2,1-0.3,1.6-0.3
		s1.1,0.1,1.6,0.3c0.5,0.2,1,0.5,1.4,0.8c0.4,0.4,0.7,0.8,1,1.4c0.2,0.6,0.4,1.2,0.4,1.9c0,1.3-0.4,2.3-1.2,3.1l1,1.1l-0.8,0.7
		l-1-1.1c-0.7,0.4-1.4,0.6-2.2,0.6c-0.7,0-1.4-0.2-2.1-0.5c-0.6-0.3-1.2-0.8-1.6-1.5S500,124.2,500,123.2z M502.1,120.8
		c-0.6,0.6-0.9,1.4-0.9,2.5c0,1.1,0.3,1.9,0.9,2.5c0.6,0.6,1.3,0.9,2.2,0.9c0.5,0,1-0.1,1.5-0.4l-1.5-1.7l0.8-0.7l1.5,1.7
		c0.5-0.6,0.8-1.4,0.8-2.3c0-1.1-0.3-1.9-0.9-2.5c-0.6-0.6-1.3-0.9-2.2-0.9S502.7,120.2,502.1,120.8z"/>
</g>
<path class="st13" d="M287.4,256c39.8,0,72-32.2,72-72c0-39.8-32.2-72-72-72c-39.8,0-72,32.2-72,72C215.4,223.8,247.6,256,287.4,256
	z"/>
<g>
	<path class="st11" d="M233.4,172.2h2.9l7.5,17h-2.6l-2.1-4.6h-8.6l-2.1,4.6h-2.5L233.4,172.2z M238.3,182.6l-3.6-8.2l-3.6,8.2
		H238.3z"/>
	<path class="st11" d="M266.4,173.3c1.1,0.7,1.7,1.9,1.7,3.2c0,0.9-0.3,1.8-0.9,2.5c-0.6,0.7-1.5,1.1-2.6,1.4c2.9,0.5,4.4,1.8,4.4,4
		c0,1.5-0.6,2.6-1.9,3.4c-1.2,0.8-3,1.2-5.3,1.2h-7.2v-17h7C263.6,172.2,265.2,172.6,266.4,173.3z M261.6,179.5
		c1.3,0,2.2-0.2,2.9-0.7c0.7-0.4,1.1-1.2,1-2c0-0.8-0.4-1.6-1-2c-0.7-0.5-1.7-0.7-3-0.7H257v5.4H261.6z M261.7,187.2
		c1.5,0,2.7-0.3,3.5-0.8c0.8-0.5,1.2-1.2,1.2-2.1c0-0.9-0.4-1.7-1.2-2.2c-0.8-0.5-2-0.8-3.4-0.8H257v5.8H261.7z"/>
	<path class="st11" d="M285.9,172.2h2.9l7.5,17h-2.6l-2.1-4.6H283l-2.1,4.6h-2.5L285.9,172.2z M290.9,182.6l-3.6-8.2l-3.6,8.2H290.9
		z"/>
	<path class="st11" d="M307,172.2h2.3l10.6,13.1v-13.1h2.4v17H320L309.4,176v13.1H307L307,172.2z"/>
	<path class="st11" d="M340.6,172.2h2.9l7.5,17h-2.6l-2.1-4.6h-8.6l-2.1,4.6H333L340.6,172.2z M345.5,182.6l-3.6-8.2l-3.6,8.2H345.5
		z"/>
</g>
</svg>
