<?xml version="1.0" encoding="utf-8"?>
<!-- Generator: Adobe Illustrator 24.2.3, SVG Export Plug-In . SVG Version: 6.00 Build 0)  -->
<svg version="1.1" id="Layer_1" xmlns="http://www.w3.org/2000/svg" xmlns:xlink="http://www.w3.org/1999/xlink" x="0px" y="0px"
	 viewBox="0 0 369.5 368" style="enable-background:new 0 0 369.5 368;" xml:space="preserve">
<style type="text/css">
	.st0{opacity:8.000000e-02;fill:url(#SVGID_1_);enable-background:new    ;}
	.st1{opacity:8.000000e-02;fill:url(#SVGID_2_);enable-background:new    ;}
	.st2{opacity:8.000000e-02;fill:url(#SVGID_3_);enable-background:new    ;}
	.st3{opacity:8.000000e-02;fill:url(#SVGID_4_);enable-background:new    ;}
	.st4{opacity:8.000000e-02;fill:url(#SVGID_5_);enable-background:new    ;}
	.st5{fill:none;stroke:url(#SVGID_6_);stroke-width:15;stroke-opacity:0.5;}
	.st6{fill:none;stroke:url(#SVGID_7_);stroke-width:15;stroke-opacity:0.5;}
	.st7{fill:none;stroke:url(#SVGID_8_);stroke-width:15;stroke-opacity:0.5;}
	.st8{fill:#FFFFFF;}
	.st9{fill:none;stroke:#FFFFFF;stroke-width:2;stroke-linecap:round;stroke-linejoin:round;}
	.st10{fill:#41415A;}
	.st11{fill:#FF6158;}
</style>
<linearGradient id="SVGID_1_" gradientUnits="userSpaceOnUse" x1="-37.3345" y1="291.1763" x2="212.5467" y2="73.861">
	<stop  offset="0" style="stop-color:#FFFFFF"/>
	<stop  offset="1" style="stop-color:#FF6158"/>
</linearGradient>
<path class="st0" d="M271,184c0,32-8.5,62.1-23.6,88.4C214.8,329.3,151.6,368,79,368c-28.2,0-54.9-5.8-79-16.3V16.3
	C24.1,5.8,50.8,0,79,0c72.3,0,135.3,38.4,168.1,95C262.3,121.4,271,151.7,271,184z"/>
<linearGradient id="SVGID_2_" gradientUnits="userSpaceOnUse" x1="-21.6804" y1="281.6077" x2="186.453" y2="86.9645">
	<stop  offset="0" style="stop-color:#FFFFFF"/>
	<stop  offset="1" style="stop-color:#FF6158"/>
</linearGradient>
<path class="st1" d="M238.6,184c0,19.5-3.8,38.2-10.8,55.4C204.7,296.5,146.8,337,79,337c-28.8,0-55.7-7.3-79-20V51
	c23.3-12.7,50.2-20,79-20c67.5,0,125.2,40.2,148.5,96.9C234.7,145.3,238.6,164.2,238.6,184z"/>
<linearGradient id="SVGID_3_" gradientUnits="userSpaceOnUse" x1="171.5748" y1="96.5035" x2="-9.8754" y2="270.3933">
	<stop  offset="0" style="stop-color:#FF6158"/>
	<stop  offset="1" style="stop-color:#FFFFFF"/>
</linearGradient>
<path class="st2" d="M214.6,184c0,10.7-1.3,21.1-3.9,31c-14.5,56.8-68,99-131.7,99c-29.5,0-56.8-9-79-24.3V78.3
	C22.2,63,49.5,54,79,54c63.4,0,116.6,41.7,131.5,98.1C213.2,162.3,214.6,173,214.6,184z"/>
<linearGradient id="SVGID_4_" gradientUnits="userSpaceOnUse" x1="148.9444" y1="120.8874" x2="3.2706" y2="252.3039">
	<stop  offset="0" style="stop-color:#FF6158"/>
	<stop  offset="1" style="stop-color:#FFFFFF"/>
</linearGradient>
<path class="st3" d="M186.8,184c0,3.2-0.2,6.5-0.5,9.6c-5.1,52.5-51.2,93.7-107.3,93.7c-31.2,0-59.3-12.7-79-33V113.7
	c19.7-20.3,47.8-33,79-33c55.7,0,101.6,40.6,107.2,92.6C186.6,176.8,186.8,180.4,186.8,184z"/>
<linearGradient id="SVGID_5_" gradientUnits="userSpaceOnUse" x1="136.9222" y1="131.764" x2="16.2692" y2="240.6084">
	<stop  offset="0" style="stop-color:#FF6158"/>
	<stop  offset="1" style="stop-color:#FFFFFF"/>
</linearGradient>
<path class="st4" d="M168.2,184c0,0.7,0,1.3,0,2c-1.1,46.3-40.6,83.5-89.2,83.5c-34.3,0-64.1-18.6-79-45.8v-79.4
	c14.9-27.2,44.7-45.8,79-45.8c48.1,0,87.4,36.6,89.1,82.3C168.2,181.9,168.2,182.9,168.2,184z"/>
<linearGradient id="SVGID_6_" gradientUnits="userSpaceOnUse" x1="72.7" y1="-63.9" x2="369.4" y2="-63.9" gradientTransform="matrix(1 0 0 1 0 318)">
	<stop  offset="0.4684" style="stop-color:#FF6158"/>
	<stop  offset="1" style="stop-color:#FFCF15"/>
</linearGradient>
<path class="st5" d="M72.7,183.3h74c95.5,0,85.9,141.6,175,141.6h47.7"/>
<linearGradient id="SVGID_7_" gradientUnits="userSpaceOnUse" x1="116.5" y1="-134.5" x2="369.5" y2="-134.5" gradientTransform="matrix(1 0 0 1 0 318)">
	<stop  offset="0.4684" style="stop-color:#FF6158"/>
	<stop  offset="1" style="stop-color:#FFCF15"/>
</linearGradient>
<path class="st6" d="M116.5,183.5h253"/>
<linearGradient id="SVGID_8_" gradientUnits="userSpaceOnUse" x1="72.7" y1="-205.3" x2="369.4" y2="-205.3" gradientTransform="matrix(1 0 0 1 0 318)">
	<stop  offset="0.4684" style="stop-color:#FF6158"/>
	<stop  offset="1" style="stop-color:#FFCF15"/>
</linearGradient>
<path class="st7" d="M72.7,183.5h74c95.5,0,85.9-141.6,175-141.6h47.7"/>
<circle class="st8" cx="326.6" cy="41.9" r="4.4"/>
<circle class="st8" cx="322.3" cy="184.3" r="4.4"/>
<circle class="st8" cx="288.2" cy="317.6" r="4.4"/>
<circle class="st8" cx="243" cy="102.8" r="4.4"/>
<circle class="st8" cx="234" cy="184" r="4.4"/>
<g>
	<path class="st9" d="M350.3,178.5l-5,5l5,5"/>
	<path class="st9" d="M357.3,178.5l-5,5l5,5"/>
</g>
<g>
	<path class="st9" d="M350.3,320.2l-5,5l5,5"/>
	<path class="st9" d="M357.3,320.2l-5,5l5,5"/>
</g>
<g>
	<path class="st9" d="M350.3,36.9l-5,5l5,5"/>
	<path class="st9" d="M357.3,36.9l-5,5l5,5"/>
</g>
<path class="st10" d="M274.4,354.2h-39.2c-3.2,0-5.9-2.7-5.9-5.9v-12.2c0-3.2,2.7-5.9,5.9-5.9h39.2c3.2,0,5.9,2.7,5.9,5.9v12.2
	C280.3,351.5,277.6,354.2,274.4,354.2z"/>
<g>
	<path class="st8" d="M246.5,342c0-0.7,0.1-1.3,0.4-1.9c0.2-0.6,0.6-1,1-1.4s0.9-0.6,1.4-0.8c0.5-0.2,1-0.3,1.6-0.3s1.1,0.1,1.6,0.3
		c0.5,0.2,1,0.5,1.4,0.8c0.4,0.4,0.7,0.8,1,1.4s0.4,1.2,0.4,1.9c0,1.3-0.4,2.3-1.2,3.1l1,1.1l-0.8,0.7l-1-1.1
		c-0.7,0.4-1.4,0.6-2.2,0.6c-0.7,0-1.4-0.2-2.1-0.5c-0.6-0.3-1.2-0.8-1.6-1.5C246.7,343.7,246.5,342.9,246.5,342z M248.6,339.5
		c-0.6,0.6-0.9,1.4-0.9,2.5s0.3,1.9,0.9,2.5s1.3,0.9,2.2,0.9c0.5,0,1-0.1,1.5-0.4l-1.5-1.7l0.8-0.7l1.5,1.7c0.5-0.6,0.8-1.4,0.8-2.3
		c0-1.1-0.3-1.9-0.9-2.5s-1.3-0.9-2.2-0.9S249.2,338.9,248.6,339.5z"/>
	<path class="st8" d="M262.3,346.3l-0.9-2.4h-3.8l-0.9,2.4h-1.3l3.4-8.5h1.4l3.4,8.5H262.3z M259.5,339l-1.5,3.8h2.9L259.5,339z"/>
</g>
<path class="st10" d="M304,136.1h-39.2c-3.2,0-5.9-2.7-5.9-5.9v-27.3c0-3.2,2.7-5.9,5.9-5.9H304c3.2,0,5.9,2.7,5.9,5.9v27.3
	C309.9,133.5,307.2,136.1,304,136.1z"/>
<g>
	<path class="st8" d="M276.9,113.1h-5.2v-8.5h1.2v7.4h4V113.1z"/>
	<path class="st8" d="M277.3,108.8c0-0.7,0.1-1.3,0.4-1.9c0.2-0.6,0.6-1,1-1.4s0.9-0.6,1.4-0.8c0.5-0.2,1-0.3,1.6-0.3
		s1.1,0.1,1.6,0.3c0.5,0.2,1,0.5,1.4,0.8c0.4,0.4,0.7,0.8,1,1.4c0.2,0.6,0.4,1.2,0.4,1.9c0,0.9-0.2,1.7-0.6,2.4s-1,1.2-1.6,1.5
		s-1.3,0.5-2.1,0.5c-0.7,0-1.4-0.2-2.1-0.5c-0.6-0.3-1.2-0.8-1.6-1.5S277.3,109.8,277.3,108.8z M279.4,106.4
		c-0.6,0.6-0.9,1.4-0.9,2.5s0.3,1.9,0.9,2.5s1.3,0.9,2.2,0.9s1.6-0.3,2.2-0.9s0.9-1.4,0.9-2.5s-0.3-1.9-0.9-2.5s-1.3-0.9-2.2-0.9
		S280,105.8,279.4,106.4z"/>
	<path class="st8" d="M295,111.3l1.8-6.7h1.2l-2.4,8.5h-1.2l-2.2-6.9l-2.2,6.9h-1.2l-2.5-8.5h1.2l1.9,6.7l2.1-6.7h1.2L295,111.3z"/>
	<path class="st8" d="M279.4,127.5h-1.2v-6.6l-2.9,6.6h-1.1l-2.9-6.6v6.6h-1.2V119h1.6l3,6.9l3-6.9h1.6v8.5H279.4z"/>
	<path class="st8" d="M281,123.2c0-0.7,0.1-1.3,0.4-1.9c0.2-0.6,0.6-1,1-1.4s0.9-0.6,1.4-0.8c0.5-0.2,1-0.3,1.6-0.3s1.1,0.1,1.6,0.3
		c0.5,0.2,1,0.5,1.4,0.8c0.4,0.4,0.7,0.8,1,1.4c0.2,0.6,0.4,1.2,0.4,1.9c0,0.9-0.2,1.7-0.6,2.4s-1,1.2-1.6,1.5s-1.3,0.5-2.1,0.5
		c-0.7,0-1.4-0.2-2.1-0.5c-0.6-0.3-1.2-0.8-1.6-1.5S281,124.2,281,123.2z M283.1,120.8c-0.6,0.6-0.9,1.4-0.9,2.5s0.3,1.9,0.9,2.5
		s1.3,0.9,2.2,0.9s1.6-0.3,2.2-0.9s0.9-1.4,0.9-2.5s-0.3-1.9-0.9-2.5s-1.3-0.9-2.2-0.9S283.7,120.2,283.1,120.8z"/>
	<path class="st8" d="M290.6,123.2c0-0.7,0.1-1.3,0.4-1.9c0.2-0.6,0.6-1,1-1.4s0.9-0.6,1.4-0.8c0.5-0.2,1-0.3,1.6-0.3
		s1.1,0.1,1.6,0.3c0.5,0.2,1,0.5,1.4,0.8c0.4,0.4,0.7,0.8,1,1.4c0.2,0.6,0.4,1.2,0.4,1.9c0,1.3-0.4,2.3-1.2,3.1l1,1.1l-0.8,0.7
		l-1-1.1c-0.7,0.4-1.4,0.6-2.2,0.6c-0.7,0-1.4-0.2-2.1-0.5c-0.6-0.3-1.2-0.8-1.6-1.5S290.6,124.2,290.6,123.2z M292.7,120.8
		c-0.6,0.6-0.9,1.4-0.9,2.5s0.3,1.9,0.9,2.5s1.3,0.9,2.2,0.9c0.5,0,1-0.1,1.5-0.4l-1.5-1.7l0.8-0.7l1.5,1.7c0.5-0.6,0.8-1.4,0.8-2.3
		c0-1.1-0.3-1.9-0.9-2.5s-1.3-0.9-2.2-0.9S293.3,120.2,292.7,120.8z"/>
</g>
<path class="st11" d="M78,256c39.8,0,72-32.2,72-72s-32.2-72-72-72S6,144.2,6,184S38.2,256,78,256z"/>
<g>
	<path class="st8" d="M26.9,172.2H24l-7.5,17H19l2.1-4.6h8.6l2.1,4.6h2.6L26.9,172.2z M21.7,182.6l3.6-8.2l3.6,8.2H21.7z"/>
	<path class="st8" d="M55.2,180.4c1.1-0.3,2-0.7,2.6-1.4c0.6-0.7,0.9-1.6,0.9-2.5c0-1.3-0.6-2.5-1.7-3.2c-1.2-0.7-2.8-1.1-4.8-1.3
		h-7v17h7.2c2.3,0,4.1-0.4,5.3-1.2c1.3-0.8,1.9-1.9,1.9-3.4C59.6,182.2,58.1,180.9,55.2,180.4z M47.6,174.1h4.5c1.3,0,2.3,0.2,3,0.7
		c0.6,0.4,1,1.2,1,2c0.1,0.8-0.3,1.6-1,2c-0.7,0.5-1.6,0.7-2.9,0.7h-4.6V174.1z M55.8,186.4c-0.8,0.5-2,0.8-3.5,0.8v-0.1h-4.7v-5.8
		h4.8c1.4,0,2.6,0.3,3.4,0.8s1.2,1.3,1.2,2.2C57,185.2,56.6,185.9,55.8,186.4z"/>
	<path class="st8" d="M84.4,183.5l-0.1-0.2l-4.9-11.1h-2.9l-7.5,17h2.5l2.1-4.6h8.6l2.1,4.6h2.6L84.4,183.5z M74.3,182.6l3.6-8.2
		l3.6,8.2H74.3z"/>
	<path class="st8" d="M97.6,172.2h2.3l10.6,13.1v-13.1h2.4v17h-2.3L100,176v13.1h-2.4V172.2z"/>
	<path class="st8" d="M139.1,183.5l-0.1-0.2l-4.9-11.1h-2.9l-5,11.1l-0.1,0.2l-2.6,5.7h2.6l2.1-4.6h8.6l2.1,4.6h2.6L139.1,183.5z
		 M132.5,174.4l3.6,8.2h-7.2L132.5,174.4z"/>
</g>
</svg>
