<svg width="41" height="35" viewBox="0 0 41 35" fill="none" xmlns="http://www.w3.org/2000/svg">
<path fill-rule="evenodd" clip-rule="evenodd" d="M6.32739 34.2319C9.26874 31.7419 13.0736 30.2404 17.2292 30.2404C21.3849 30.2404 25.1898 31.7419 28.1311 34.2319C31.7891 31.1353 34.1113 26.5094 34.1113 21.3413C34.1113 12.0176 26.553 4.45923 17.2292 4.45923C7.90552 4.45923 0.347168 12.0176 0.347168 21.3413C0.347168 26.5094 2.66943 31.1353 6.32739 34.2319ZM22.2681 21.3413C22.2681 24.124 20.0122 26.3799 17.2295 26.3799C14.4468 26.3799 12.1909 24.124 12.1909 21.3413C12.1909 18.5586 14.4468 16.3027 17.2295 16.3027C20.0122 16.3027 22.2681 18.5586 22.2681 21.3413Z" fill="#FFBCB9"/>
<path fill-rule="evenodd" clip-rule="evenodd" d="M31.4465 19.8363C36.7227 19.8363 40.9999 15.5591 40.9999 10.2829C40.9999 5.0067 36.7227 0.729492 31.4465 0.729492C26.1703 0.729492 21.8931 5.0067 21.8931 10.2829C21.8931 15.5591 26.1703 19.8363 31.4465 19.8363ZM37.2543 6.41254C37.6432 6.80469 37.6406 7.43785 37.2484 7.82674L30.7508 14.2706C30.4717 14.5473 30.0706 14.6258 29.7223 14.5067C29.4938 14.464 29.279 14.3418 29.1232 14.1455L27.0947 11.5897C26.7514 11.1571 26.8237 10.528 27.2563 10.1847C27.6889 9.84137 28.3179 9.91373 28.6612 10.3463L30.0734 12.1256L35.8401 6.40666C36.2323 6.01776 36.8654 6.02039 37.2543 6.41254Z" fill="#FF6158"/>
<path fill-rule="evenodd" clip-rule="evenodd" d="M34.0108 19.4883C33.1948 19.7151 32.3348 19.8363 31.4465 19.8363C26.1703 19.8363 21.8931 15.5591 21.8931 10.2829C21.8931 8.55245 22.3532 6.92944 23.1577 5.52954C26.255 6.69136 28.9201 8.73714 30.8458 11.3597L30.0734 12.1256L28.6612 10.3463C28.3179 9.91375 27.6889 9.8414 27.2563 10.1847C26.8237 10.5281 26.7514 11.1571 27.0947 11.5897L29.1232 14.1455C29.279 14.3419 29.4938 14.464 29.7223 14.5067C30.0706 14.6258 30.4717 14.5474 30.7508 14.2706L31.9539 13.0775C33.0412 15.0106 33.7588 17.1795 34.0108 19.4883Z" fill="#DC4C44"/>
</svg>
