<svg width="48" height="44" viewBox="0 0 48 44" fill="none" xmlns="http://www.w3.org/2000/svg">
<path d="M22.9164 26.6821C23.3013 26.0154 24.2636 26.0154 24.6485 26.6821L31.0441 37.7596C31.429 38.4262 30.9479 39.2596 30.1781 39.2596H17.3869C16.6171 39.2596 16.1359 38.4262 16.5208 37.7596L22.9164 26.6821Z" fill="#FFBCB9"/>
<path d="M24.6485 18.3697C24.2636 19.0364 23.3013 19.0364 22.9164 18.3697L16.5208 7.29217C16.1359 6.62551 16.6171 5.79217 17.3869 5.79217L30.1781 5.79218C30.9479 5.79218 31.429 6.62551 31.0441 7.29218L24.6485 18.3697Z" fill="#FFBCB9"/>
<path d="M19.75 23.8539C20.5198 23.8539 21.0009 24.6872 20.616 25.3539L14.2204 36.4314C13.8355 37.0981 12.8733 37.0981 12.4884 36.4314L6.09277 25.3539C5.70787 24.6872 6.18899 23.8539 6.95879 23.8539L19.75 23.8539Z" fill="#FFBCB9"/>
<path d="M27.8149 21.1978C27.0451 21.1978 26.564 20.3645 26.9489 19.6978L33.3445 8.62033C33.7294 7.95366 34.6917 7.95366 35.0766 8.62033L41.4722 19.6978C41.8571 20.3645 41.3759 21.1978 40.6061 21.1978L27.8149 21.1978Z" fill="#FFBCB9"/>
<path d="M20.6163 19.6977C21.0012 20.3643 20.52 21.1977 19.7502 21.1977L6.95904 21.1977C6.18924 21.1977 5.70811 20.3643 6.09301 19.6977L12.4886 8.62015C12.8735 7.95348 13.8358 7.95348 14.2207 8.62015L20.6163 19.6977Z" fill="#FFBCB9"/>
<path d="M26.9487 25.3541C26.5638 24.6874 27.0449 23.8541 27.8147 23.8541L40.6059 23.8541C41.3757 23.8541 41.8568 24.6874 41.4719 25.3541L35.0763 36.4316C34.6914 37.0983 33.7292 37.0983 33.3443 36.4316L26.9487 25.3541Z" fill="#FFBCB9"/>
<circle cx="14.9146" cy="7.13989" r="4.50689" fill="#FF6158"/>
<path fill-rule="evenodd" clip-rule="evenodd" d="M18.2086 10.2158C18.961 9.41034 19.4214 8.32892 19.4214 7.13983C19.4214 6.67035 19.3496 6.21771 19.2165 5.79218H17.3867C16.617 5.79218 16.1358 6.62555 16.5207 7.29218L18.2086 10.2158Z" fill="#DC4C44"/>
<path fill-rule="evenodd" clip-rule="evenodd" d="M11.5879 10.1804L12.4887 8.62012C12.8736 7.95337 13.8358 7.95337 14.2207 8.62012L15.9051 11.5376C15.5864 11.609 15.2549 11.6467 14.9147 11.6467C13.5973 11.6467 12.412 11.0815 11.5879 10.1804Z" fill="#DC4C44"/>
<circle cx="32.0796" cy="36.8599" r="4.50689" fill="#FF6158"/>
<path d="M22.9164 26.6821C23.3013 26.0154 24.2636 26.0154 24.6485 26.6821L31.0441 37.7596C31.429 38.4262 30.9479 39.2596 30.1781 39.2596H17.3869C16.6171 39.2596 16.1359 38.4262 16.5208 37.7596L22.9164 26.6821Z" fill="#FFBCB9"/>
<path d="M26.9487 25.3541C26.5638 24.6874 27.0449 23.8541 27.8147 23.8541L40.6059 23.8541C41.3757 23.8541 41.8568 24.6874 41.4719 25.3541L35.0763 36.4316C34.6914 37.0983 33.7292 37.0983 33.3443 36.4316L26.9487 25.3541Z" fill="#FFBCB9"/>
<circle cx="32.0796" cy="36.8599" r="4.50689" fill="#FF6158"/>
<path fill-rule="evenodd" clip-rule="evenodd" d="M28.7629 33.8084L31.0441 37.7596C31.429 38.4262 30.9479 39.2596 30.1781 39.2596H28.2641C27.8262 38.5648 27.5728 37.7419 27.5728 36.8598C27.5728 35.6828 28.024 34.6111 28.7629 33.8084Z" fill="#DC4C44"/>
<path fill-rule="evenodd" clip-rule="evenodd" d="M36.0553 34.7355L35.0761 36.4316C34.6912 37.0983 33.729 37.0983 33.3441 36.4316L31.0566 32.4695C31.3853 32.3932 31.7277 32.353 32.0795 32.353C33.8004 32.353 35.2961 33.3176 36.0553 34.7355Z" fill="#DC4C44"/>
<circle cx="6.3367" cy="22.0025" r="4.50689" transform="rotate(-60 6.3367 22.0025)" fill="#FF6158"/>
<path fill-rule="evenodd" clip-rule="evenodd" d="M7.30435 17.5995C7.74502 17.6965 8.17856 17.8618 8.59012 18.0994C9.78341 18.7884 10.5424 19.9406 10.7712 21.1977H6.95901C6.18918 21.1977 5.7081 20.3643 6.09299 19.6977L7.30435 17.5995Z" fill="#DC4C44"/>
<path fill-rule="evenodd" clip-rule="evenodd" d="M10.4463 23.8539C10.3849 23.9898 10.3162 24.124 10.24 24.2559C9.47995 25.5724 8.15603 26.3604 6.74942 26.4909L6.09299 25.3539C5.7081 24.6872 6.18918 23.8539 6.95901 23.8539H10.4463Z" fill="#DC4C44"/>
<circle cx="40.6575" cy="21.9972" r="4.50689" transform="rotate(-60 40.6575 21.9972)" fill="#FF6158"/>
<path fill-rule="evenodd" clip-rule="evenodd" d="M40.8093 26.5021C39.9946 26.5303 39.1623 26.3378 38.4043 25.9002C37.5549 25.4099 36.9255 24.6846 36.5508 23.8541H40.6061C41.376 23.8541 41.8571 24.6874 41.4722 25.3541L40.8093 26.5021Z" fill="#DC4C44"/>
<path fill-rule="evenodd" clip-rule="evenodd" d="M40.2101 17.5121L41.472 19.6978C41.8569 20.3646 41.3759 21.1978 40.606 21.1978H36.2207C36.3105 20.6993 36.4865 20.2076 36.7543 19.7437C37.5081 18.438 38.8165 17.6523 40.2101 17.5121Z" fill="#DC4C44"/>
<circle cx="14.9192" cy="36.8625" r="4.50689" transform="rotate(-120 14.9192 36.8625)" fill="#FF6158"/>
<path fill-rule="evenodd" clip-rule="evenodd" d="M16.4243 32.6142L14.2205 36.4314C13.8356 37.0981 12.8734 37.0981 12.4884 36.4314L11.2363 34.2629C11.6011 33.7453 12.0814 33.2968 12.6658 32.9594C13.8541 32.2734 15.2248 32.1899 16.4243 32.6142Z" fill="#DC4C44"/>
<path fill-rule="evenodd" clip-rule="evenodd" d="M18.7367 39.2596C19.5944 37.8909 19.686 36.1053 18.8222 34.6091C18.7431 34.472 18.6579 34.3408 18.567 34.2153L16.5207 37.7596C16.1358 38.4262 16.617 39.2596 17.3867 39.2596H18.7367Z" fill="#DC4C44"/>
<circle cx="32.0749" cy="7.13711" r="4.50689" transform="rotate(-120 32.0749 7.13711)" fill="#FF6158"/>
<path fill-rule="evenodd" clip-rule="evenodd" d="M35.7375 9.76517C35.3753 10.2707 34.902 10.709 34.3283 11.0402C33.4735 11.5337 32.5243 11.7154 31.6123 11.6205L33.3445 8.62027C33.7294 7.95364 34.6916 7.95364 35.0765 8.62027L35.7375 9.76517Z" fill="#DC4C44"/>
<path fill-rule="evenodd" clip-rule="evenodd" d="M29.1521 10.5693C28.7705 10.2442 28.4369 9.84955 28.172 9.39056C27.5163 8.25482 27.411 6.95245 27.7735 5.79218H30.1782C30.948 5.79218 31.4291 6.62555 31.0442 7.29218L29.1521 10.5693Z" fill="#DC4C44"/>
</svg>
