<svg width="46" height="39" viewBox="0 0 46 39" fill="none" xmlns="http://www.w3.org/2000/svg">
<path d="M29.6744 18.2216C30.8304 19.0163 30.8303 20.7232 29.6744 21.5179L11.1819 34.2306C9.85493 35.1429 8.04893 34.1928 8.04893 32.5825L8.04893 7.15704C8.04893 5.5467 9.85493 4.59666 11.1819 5.50892L29.6744 18.2216Z" fill="#FFBCB9"/>
<path d="M43.3643 18.2216C44.5203 19.0163 44.5203 20.7232 43.3643 21.5179L24.8719 34.2306C23.5449 35.1429 21.7389 34.1928 21.7389 32.5825L21.7389 7.15704C21.7389 5.5467 23.5449 4.59666 24.8719 5.50892L43.3643 18.2216Z" fill="#FF6158"/>
<path fill-rule="evenodd" clip-rule="evenodd" d="M29.6743 21.5178C30.8302 20.7231 30.8302 19.0164 29.6743 18.2217L21.7388 12.7664V26.9731L29.6743 21.5178Z" fill="#DC4C44"/>
</svg>
