<svg width="43" height="41" viewBox="0 0 43 41" fill="none" xmlns="http://www.w3.org/2000/svg">
<path d="M38.4753 40.3669H4.55249C2.86415 40.3669 1.93541 38.4041 3.00604 37.0986L13.1925 24.6779C14.3829 23.2263 16.2862 22.5639 18.1207 22.9627L26.8548 24.8614C27.7204 25.0495 28.6066 24.6459 29.0329 23.8694L40.0798 3.74537C40.5735 2.84599 41.9397 3.18458 41.9563 4.21041L42.4748 36.3023C42.5109 38.5364 40.7098 40.3669 38.4753 40.3669Z" fill="#FF6158"/>
<path d="M38.4091 40.3667H4.6278C3.56885 40.3667 3.23635 38.9363 4.18674 38.4692L15.4205 32.9485C16.4685 32.4335 17.3032 31.5678 17.7798 30.5018L26.8086 10.306C27.3631 9.06567 28.9664 8.72734 29.9748 9.6379L41.5798 20.1172C41.7814 20.2992 41.9003 20.5555 41.9091 20.827L42.4071 36.2375C42.48 38.4961 40.6689 40.3667 38.4091 40.3667Z" fill="#FFBCB9"/>
<path fill-rule="evenodd" clip-rule="evenodd" d="M34.5683 13.7859L41.5799 20.1173C41.7815 20.2994 41.9004 20.5557 41.9092 20.8272L42.4072 36.2377C42.4802 38.4963 40.6691 40.3669 38.4093 40.3669H4.62794C3.56898 40.3669 3.23649 38.9364 4.18688 38.4694L15.4206 32.9487C16.4686 32.4336 17.3033 31.568 17.7799 30.5019L20.8821 23.563L26.855 24.8614C27.7205 25.0496 28.6068 24.646 29.033 23.8695L34.5683 13.7859Z" fill="#DC4C44"/>
</svg>
