<?xml version="1.0" encoding="utf-8"?>
<!-- Generator: Adobe Illustrator 24.3.0, SVG Export Plug-In . SVG Version: 6.00 Build 0)  -->
<svg version="1.1" id="Layer_1" xmlns="http://www.w3.org/2000/svg" xmlns:xlink="http://www.w3.org/1999/xlink" x="0px" y="0px"
	 viewBox="0 0 584.3 84.6" style="enable-background:new 0 0 584.3 84.6;" xml:space="preserve">
<style type="text/css">
	.st0{fill:#0D183A;}
</style>
<path class="st0" d="M37.6,0h14.5l37.5,84.6H76.5L66.1,61.7h-43L12.7,84.6H0L37.6,0z M62.5,52.2l-18-40.7L26.8,52.2H62.5z"/>
<path class="st0" d="M192.2,5.8c5.5,3.5,8.7,9.6,8.5,16.1c0.2,4.6-1.5,9-4.5,12.4c-3,3.3-7.4,5.6-13.1,6.8
	c14.5,2.3,21.7,9.1,21.7,20.2c0,7.3-3.1,13-9.2,17.1c-6.2,4.1-15,6.2-26.6,6.2h-35.9V0h35C178.4,0,186.5,1.9,192.2,5.8z M168.6,36.7
	c6.3,0,11.2-1.2,14.7-3.6c3.4-2.2,5.3-6,5.2-10c0.2-4-1.8-7.8-5.1-10c-3.4-2.4-8.3-3.6-14.7-3.6h-23.3v27.2
	C145.4,36.7,168.6,36.7,168.6,36.7z M169,75c7.5,0,13.3-1.3,17.3-3.8s6-6,6-10.4c0.1-4.5-2.2-8.7-6.1-10.9c-4-2.5-9.8-3.8-17.2-3.8
	h-23.7V75H169z"/>
<path class="st0" d="M279.6,0h14.5l37.5,84.6h-13.1l-10.4-22.8h-43l-10.4,22.8H242L279.6,0z M304.5,52.2l-17.9-40.7l-17.8,40.7
	H304.5z"/>
<path class="st0" d="M375,0h11.3l53,65.2V0h12v84.6H440l-53-65.2v65.2h-12V0z"/>
<path class="st0" d="M532.3,0h14.5l37.5,84.6h-13.1l-10.4-22.8h-43l-10.4,22.8h-12.7L532.3,0z M557.1,52.2l-17.9-40.7l-17.8,40.7
	H557.1z"/>
</svg>
