<?xml version="1.0" encoding="utf-8"?>
<!-- Generator: Adobe Illustrator 25.0.0, SVG Export Plug-In . SVG Version: 6.00 Build 0)  -->
<svg version="1.1" id="Layer_1W" xmlns="http://www.w3.org/2000/svg" xmlns:xlink="http://www.w3.org/1999/xlink" x="0px" y="0px"
	 viewBox="0 0 584.3 149.1" style="enable-background:new 0 0 584.3 149.1;" xml:space="preserve">
<style type="text/css">
	.st0{fill:#FF6158;}
	.st1{fill:#202C4F;}
</style>
<path class="st0" d="M37.6,0h14.5l37.5,84.6H76.5L66.1,61.7h-43L12.7,84.6H0L37.6,0z M62.5,52.2l-18-40.7L26.8,52.2H62.5z"/>
<path class="st0" d="M192.2,5.8c5.5,3.5,8.7,9.6,8.5,16.1c0.2,4.6-1.5,9-4.5,12.4c-3,3.3-7.4,5.6-13.1,6.8
	c14.5,2.3,21.7,9.1,21.7,20.2c0,7.3-3.1,13-9.2,17.1c-6.2,4.1-15,6.2-26.6,6.2h-35.9V0h35C178.4,0,186.5,1.9,192.2,5.8z M168.6,36.7
	c6.3,0,11.2-1.2,14.7-3.6c3.4-2.2,5.3-6,5.2-10c0.2-4-1.8-7.8-5.1-10c-3.4-2.4-8.3-3.6-14.7-3.6h-23.3v27.2
	C145.4,36.7,168.6,36.7,168.6,36.7z M169,75c7.5,0,13.3-1.3,17.3-3.8s6-6,6-10.4c0.1-4.5-2.2-8.7-6.1-10.9c-4-2.5-9.8-3.8-17.2-3.8
	h-23.7V75H169z"/>
<path class="st0" d="M279.6,0h14.5l37.5,84.6h-13.1l-10.4-22.8h-43l-10.4,22.8H242L279.6,0z M304.5,52.2l-17.9-40.7l-17.8,40.7
	H304.5z"/>
<path class="st0" d="M375,0h11.3l53,65.2V0h12v84.6H440l-53-65.2v65.2h-12V0z"/>
<path class="st0" d="M532.3,0h14.5l37.5,84.6h-13.1l-10.4-22.8h-43l-10.4,22.8h-12.7L532.3,0z M557.1,52.2l-17.9-40.7l-17.8,40.7
	H557.1z"/>
<g>
	<path class="st1" d="M0,139.6v-32h19.5v4.1h-15v9.9h13.6v4.1H4.4v9.8h15v4.1H0z"/>
	<path class="st1" d="M30.7,128.6l-7.7-10.7h5.1l5.3,7.6l5.3-7.6h5l-7.8,10.7c0.2,0.3,0.5,0.8,1,1.3c0.5,0.6,0.9,1.2,1.4,2
		c0.5,0.8,1.1,1.5,1.7,2.3c0.5,0.8,1.1,1.6,1.7,2.3c0.5,0.8,1,1.4,1.4,2s0.8,1,1,1.3h-5.1l-5.6-8l-5.5,8h-5L30.7,128.6z"/>
	<path class="st1" d="M48,148.2v-30.3h4.1v3.4c0.6-1.1,1.5-2,2.8-2.8c1.2-0.8,2.7-1.1,4.5-1.1c1.7,0,3.1,0.3,4.3,0.9
		c1.3,0.6,2.3,1.4,3.1,2.4c0.8,1.1,1.4,2.3,1.9,3.6c0.5,1.4,0.7,2.9,0.7,4.4c0,1.7-0.2,3.2-0.7,4.5c-0.5,1.4-1.1,2.6-2,3.6
		c-0.9,1.1-2,1.9-3.2,2.4c-1.3,0.6-2.7,0.9-4.3,0.9c-1.7,0-3.2-0.4-4.4-1.1c-1.2-0.7-2.1-1.5-2.7-2.5v11.5L48,148.2L48,148.2z
		 M65,128.7c0-1.1-0.2-2.1-0.5-3c-0.3-0.9-0.8-1.7-1.3-2.4c-0.5-0.7-1.2-1.2-2-1.6c-0.8-0.4-1.7-0.6-2.7-0.6c-1,0-1.9,0.2-2.6,0.6
		c-0.8,0.4-1.5,0.9-2,1.6c-0.6,0.7-1,1.5-1.3,2.4s-0.5,1.9-0.5,3c0,1.1,0.2,2.1,0.5,3.1s0.8,1.7,1.3,2.4c0.6,0.7,1.3,1.2,2,1.6
		c0.8,0.4,1.7,0.5,2.6,0.5c1,0,1.9-0.2,2.6-0.5c0.8-0.4,1.4-0.9,2-1.6c0.5-0.7,1-1.5,1.3-2.4C64.8,130.9,65,129.8,65,128.7z"/>
	<path class="st1" d="M74.7,139.6v-32.7h4.2v32.6L74.7,139.6L74.7,139.6z"/>
	<path class="st1" d="M95.4,117.2c1.7,0,3.1,0.3,4.4,0.9c1.4,0.6,2.6,1.4,3.5,2.4c1,1.1,1.7,2.3,2.3,3.6c0.5,1.4,0.8,2.9,0.8,4.6
		s-0.3,3.2-0.8,4.6c-0.5,1.4-1.3,2.6-2.3,3.7c-1,1.1-2.2,1.8-3.5,2.4c-1.4,0.6-2.9,0.9-4.4,0.9c-1.7,0-3.1-0.3-4.4-0.9
		c-1.4-0.6-2.6-1.4-3.5-2.4c-1-1.1-1.7-2.3-2.3-3.7c-0.5-1.4-0.8-2.9-0.8-4.6c0-1.7,0.3-3.2,0.8-4.6c0.5-1.4,1.3-2.6,2.3-3.6
		c1-1.1,2.2-1.8,3.5-2.4C92.4,117.5,93.9,117.2,95.4,117.2z M95.4,136.5c0.9,0,1.7-0.2,2.6-0.5c0.8-0.3,1.5-0.8,2.2-1.5
		c0.6-0.7,1.1-1.5,1.5-2.4s0.5-2.1,0.5-3.3c0-1.2-0.2-2.4-0.5-3.3c-0.4-0.9-0.8-1.7-1.5-2.4c-0.6-0.7-1.4-1.1-2.2-1.5
		s-1.7-0.5-2.6-0.5c-0.9,0-1.7,0.2-2.6,0.5c-0.8,0.3-1.5,0.8-2.2,1.5c-0.6,0.7-1.1,1.5-1.5,2.4c-0.4,0.9-0.5,2-0.5,3.3
		c0,1.3,0.2,2.4,0.5,3.3c0.4,0.9,0.8,1.8,1.5,2.4c0.6,0.7,1.4,1.1,2.2,1.5C93.7,136.3,94.5,136.5,95.4,136.5z"/>
	<path class="st1" d="M124,122.2c-0.6-0.1-1.3-0.2-1.9-0.2c-1.8,0-3.2,0.5-4.3,1.6c-1.1,1.1-1.7,2.8-1.7,5.1v10.9H112v-21.7h4.1v3.8
		c0.4-0.8,0.8-1.5,1.4-2c0.5-0.5,1.1-1,1.7-1.3c0.6-0.3,1.1-0.5,1.7-0.7c0.6-0.2,1.2-0.2,1.7-0.2c0.3,0,0.6,0,0.8,0.1
		c0.2,0,0.5,0.1,0.6,0.1L124,122.2L124,122.2z"/>
	<path class="st1" d="M147.3,133.4c-0.3,1-0.8,1.9-1.4,2.7c-0.6,0.8-1.3,1.6-2.1,2.2s-1.8,1.1-2.9,1.4c-1.1,0.4-2.2,0.5-3.5,0.5
		c-1.4,0-2.9-0.2-4.1-0.8c-1.4-0.5-2.5-1.3-3.5-2.3c-1-1-1.8-2.2-2.4-3.7c-0.6-1.4-0.9-3.1-0.9-4.9c0-1.7,0.3-3.3,0.8-4.7
		c0.6-1.4,1.4-2.6,2.3-3.6c1-1,2-1.8,3.3-2.3s2.6-0.8,3.9-0.8c1.7,0,3.2,0.3,4.4,0.8c1.3,0.5,2.4,1.4,3.3,2.3s1.5,2.2,2,3.6
		c0.5,1.4,0.7,2.9,0.7,4.7c0,0.3,0,0.5,0,0.8s-0.1,0.5-0.1,0.6h-16.3c0,1,0.2,1.9,0.5,2.6c0.3,0.8,0.8,1.5,1.4,2.1
		c0.6,0.6,1.3,1.1,2.1,1.4c0.8,0.3,1.7,0.5,2.6,0.5c1.8,0,3.2-0.5,4.1-1.3c0.9-0.8,1.6-1.9,2-3.1L147.3,133.4z M143,126.5
		c-0.1-1.6-0.6-2.9-1.6-3.9c-1-1.1-2.5-1.6-4.4-1.6c-0.9,0-1.7,0.2-2.4,0.5c-0.7,0.3-1.3,0.8-1.8,1.3s-0.9,1.1-1.2,1.8
		c-0.3,0.7-0.5,1.4-0.5,2L143,126.5L143,126.5z"/>
</g>
<g>
	<path class="st1" d="M199.8,139.6v-32h19.5v4.1h-15v9.9h13.6v4.1h-13.6v9.8h15v4.1H199.8z"/>
	<path class="st1" d="M229.2,139.6H225v-21.7h4.1v3.1c0.8-1.4,1.8-2.3,3-2.9c1.2-0.6,2.4-0.8,3.7-0.8c1.3,0,2.4,0.2,3.4,0.7
		s1.8,1.1,2.4,1.8c0.7,0.8,1.1,1.7,1.4,2.7c0.3,1.1,0.5,2.2,0.5,3.4v13.8h-4.2v-13.1c0-0.8-0.1-1.4-0.2-2.1
		c-0.2-0.7-0.5-1.2-0.8-1.7c-0.4-0.5-0.9-0.9-1.6-1.2c-0.7-0.3-1.4-0.5-2.3-0.5c-0.8,0-1.6,0.2-2.2,0.5c-0.6,0.3-1.1,0.8-1.6,1.3
		c-0.5,0.5-0.8,1.2-1,1.9c-0.2,0.8-0.3,1.5-0.3,2.3L229.2,139.6C229.2,139.6,229.2,139.6,229.2,139.6z"/>
	<path class="st1" d="M252.8,139.8c0.2,1.5,0.8,2.8,1.8,3.8c1.1,1,2.4,1.5,4.1,1.5c2.3,0,4-0.6,5-1.7c1.1-1.2,1.6-2.9,1.6-5.3v-3.1
		c-0.5,1-1.4,1.8-2.5,2.6c-1.1,0.7-2.6,1.1-4.1,1.1c-1.4,0-2.8-0.2-4-0.8c-1.2-0.5-2.3-1.3-3.2-2.2c-0.9-0.9-1.6-2-2.1-3.3
		c-0.5-1.3-0.8-2.7-0.8-4.2c0-1.5,0.2-2.9,0.8-4.1c0.5-1.3,1.1-2.4,2-3.3c0.9-1,2-1.7,3.2-2.3s2.6-0.8,4.1-0.8
		c1.7,0,3.1,0.3,4.2,0.9c1.1,0.6,2,1.4,2.5,2.6v-3h4.2v20.1c0,1.4-0.2,2.7-0.5,4.1c-0.4,1.3-1,2.5-1.8,3.5c-0.8,1-2,1.8-3.4,2.4
		c-1.4,0.6-3.1,0.9-5.1,0.9c-1.4,0-2.6-0.2-3.8-0.6c-1.1-0.4-2.2-1-3.1-1.7c-0.9-0.8-1.6-1.6-2.2-2.6c-0.5-1-0.9-2-1-3.2
		L252.8,139.8z M259.3,135c1.8,0,3.3-0.6,4.4-1.9c1.1-1.3,1.7-2.9,1.7-5c0-2.1-0.6-3.8-1.7-5s-2.6-1.9-4.4-1.9
		c-1.9,0-3.4,0.6-4.6,1.9c-1.1,1.3-1.7,2.9-1.7,5c0,2.1,0.6,3.8,1.7,5.1C255.9,134.3,257.4,135,259.3,135z"/>
	<path class="st1" d="M274.8,133.7c0-1,0.2-1.8,0.5-2.6c0.3-0.8,0.8-1.4,1.4-2c0.6-0.5,1.3-1,2.1-1.3s1.7-0.6,2.6-0.8l5.9-0.8
		c0.7-0.1,1.1-0.3,1.4-0.6c0.2-0.3,0.3-0.7,0.3-1.1c0-1.1-0.4-2-1.1-2.7c-0.8-0.8-2-1.1-3.6-1.1c-1.5,0-2.6,0.4-3.5,1.3
		s-1.3,1.9-1.4,3.2l-4.1-1c0.2-1.1,0.5-2,0.9-2.9s1.1-1.7,1.9-2.3c0.8-0.6,1.7-1.1,2.7-1.4c1.1-0.4,2.2-0.5,3.3-0.5
		c1.7,0,3,0.2,4.1,0.7c1.1,0.5,2.1,1,2.8,1.7c0.8,0.8,1.3,1.6,1.6,2.6c0.3,1,0.5,2,0.5,3V136c0,1,0,1.7,0.1,2.3
		c0.1,0.6,0.2,1,0.2,1.3h-4.1c-0.1-0.3-0.2-0.6-0.2-1.1c-0.1-0.5-0.1-1.1-0.1-1.9c-0.2,0.4-0.5,0.8-1,1.2c-0.4,0.5-0.9,0.8-1.4,1.2
		c-0.6,0.4-1.2,0.7-2,0.9s-1.7,0.4-2.6,0.4c-1.1,0-2.1-0.2-3-0.5c-0.9-0.4-1.7-0.8-2.3-1.4c-0.6-0.6-1.1-1.3-1.5-2
		C275,135.5,274.8,134.6,274.8,133.7z M282.6,136.7c0.9,0,1.7-0.2,2.5-0.4c0.8-0.2,1.4-0.6,2-1.1c0.5-0.5,1-1.1,1.4-2
		c0.3-0.8,0.5-1.8,0.5-3v-1l-6.6,1c-0.9,0.2-1.7,0.5-2.3,1.1c-0.6,0.5-0.9,1.3-0.9,2.3c0,0.8,0.3,1.6,1,2.2
		C280.7,136.4,281.6,136.7,282.6,136.7z"/>
	<path class="st1" d="M302.3,139.8c0.2,1.5,0.8,2.8,1.8,3.8c1.1,1,2.4,1.5,4.1,1.5c2.3,0,4-0.6,5-1.7c1.1-1.2,1.6-2.9,1.6-5.3v-3.1
		c-0.5,1-1.4,1.8-2.5,2.6c-1.1,0.7-2.6,1.1-4.1,1.1c-1.4,0-2.8-0.2-4-0.8c-1.2-0.5-2.3-1.3-3.2-2.2c-0.9-0.9-1.6-2-2.1-3.3
		c-0.5-1.3-0.8-2.7-0.8-4.2c0-1.5,0.2-2.9,0.8-4.1c0.5-1.3,1.1-2.4,2-3.3c0.9-0.9,2-1.7,3.2-2.3c1.2-0.5,2.6-0.8,4.1-0.8
		c1.7,0,3.1,0.3,4.2,0.9c1.1,0.6,2,1.4,2.5,2.6v-3h4.2v20.1c0,1.4-0.2,2.7-0.5,4.1c-0.4,1.4-1,2.5-1.8,3.5s-2,1.8-3.4,2.4
		c-1.4,0.6-3.1,0.9-5.1,0.9c-1.4,0-2.6-0.2-3.8-0.6c-1.1-0.4-2.2-1-3.1-1.7c-0.9-0.7-1.6-1.6-2.2-2.6c-0.5-1-0.9-2-1-3.2
		L302.3,139.8z M308.8,135c1.8,0,3.3-0.6,4.4-1.9c1.1-1.3,1.7-2.9,1.7-5c0-2.1-0.6-3.8-1.7-5s-2.6-1.9-4.4-1.9
		c-1.9,0-3.4,0.6-4.6,1.9c-1.2,1.3-1.7,2.9-1.7,5c0,2.1,0.6,3.8,1.7,5.1C305.3,134.3,306.9,135,308.8,135z"/>
	<path class="st1" d="M344.8,133.4c-0.3,1-0.8,1.9-1.4,2.7s-1.3,1.6-2.1,2.2c-0.8,0.6-1.8,1.1-2.9,1.4c-1.1,0.4-2.2,0.5-3.5,0.5
		c-1.4,0-2.9-0.2-4.1-0.8c-1.3-0.5-2.5-1.3-3.5-2.3c-1-1-1.8-2.2-2.4-3.7c-0.6-1.4-0.9-3.1-0.9-4.9c0-1.7,0.3-3.3,0.8-4.7
		c0.6-1.4,1.4-2.6,2.3-3.6c1-1,2-1.8,3.3-2.3s2.6-0.8,3.9-0.8c1.7,0,3.2,0.3,4.4,0.8c1.3,0.5,2.4,1.4,3.2,2.3c0.9,1,1.5,2.2,2,3.6
		c0.5,1.4,0.7,2.9,0.7,4.7c0,0.3,0,0.5,0,0.8s-0.1,0.5-0.1,0.6h-16.3c0,1,0.2,1.9,0.5,2.6c0.3,0.8,0.8,1.5,1.4,2.1
		c0.6,0.6,1.3,1.1,2.1,1.4c0.8,0.3,1.7,0.5,2.6,0.5c1.8,0,3.2-0.5,4.1-1.3c0.9-0.8,1.6-1.9,2-3.1L344.8,133.4z M340.5,126.5
		c-0.1-1.6-0.6-2.9-1.6-3.9c-1-1.1-2.5-1.6-4.4-1.6c-0.9,0-1.7,0.2-2.4,0.5c-0.7,0.3-1.3,0.8-1.8,1.3s-0.9,1.1-1.2,1.8
		c-0.3,0.7-0.5,1.4-0.5,2L340.5,126.5L340.5,126.5L340.5,126.5z"/>
</g>
<g>
	<path class="st1" d="M396.6,139.6v-32h19.5v4.1h-15v9.9h13.6v4.1H401v9.8h15v4.1H396.6z"/>
	<path class="st1" d="M421.7,139.6v-21.7h4.1v2.9c0.7-1.2,1.7-2.1,2.9-2.6c1.2-0.6,2.5-0.8,3.8-0.8c1.4,0,2.6,0.3,3.8,1
		s2.1,1.7,2.7,3.1c0.9-1.6,2-2.6,3.2-3.2c1.3-0.6,2.6-0.9,4-0.9c0.9,0,1.9,0.2,2.8,0.5c0.9,0.3,1.7,0.8,2.4,1.5
		c0.7,0.7,1.3,1.5,1.7,2.6c0.5,1.1,0.6,2.3,0.6,3.7v14.1h-4.2V126c0-1.4-0.4-2.6-1.1-3.5c-0.8-0.9-1.9-1.4-3.5-1.4
		c-1.5,0-2.7,0.5-3.6,1.6c-0.9,1.1-1.4,2.3-1.4,3.9v13.2h-4.2V126c0-1.4-0.4-2.6-1.1-3.5s-1.9-1.4-3.5-1.4c-1.5,0-2.8,0.5-3.7,1.5
		c-0.9,1.1-1.4,2.3-1.4,4v13.1H421.7z"/>
	<path class="st1" d="M460.4,148.2v-30.3h4.1v3.4c0.6-1.1,1.5-2,2.8-2.8s2.7-1.1,4.5-1.1c1.7,0,3.1,0.3,4.3,0.9
		c1.3,0.6,2.3,1.4,3.1,2.4c0.8,1.1,1.4,2.3,1.9,3.6c0.5,1.4,0.7,2.9,0.7,4.4c0,1.7-0.2,3.2-0.7,4.5c-0.5,1.4-1.1,2.6-2,3.6
		c-0.9,1.1-2,1.9-3.2,2.4c-1.3,0.6-2.6,0.9-4.3,0.9s-3.2-0.4-4.4-1.1s-2.1-1.5-2.7-2.5v11.5L460.4,148.2L460.4,148.2z M477.4,128.7
		c0-1.1-0.2-2.1-0.5-3c-0.3-0.9-0.8-1.7-1.3-2.4c-0.5-0.7-1.2-1.2-2-1.6c-0.8-0.4-1.7-0.6-2.7-0.6c-1,0-1.9,0.2-2.6,0.6
		c-0.8,0.4-1.5,0.9-2,1.6c-0.6,0.7-1,1.5-1.3,2.4c-0.3,0.9-0.5,1.9-0.5,3c0,1.1,0.2,2.1,0.5,3.1c0.3,1,0.8,1.7,1.3,2.4
		c0.6,0.7,1.3,1.2,2,1.6c0.8,0.4,1.7,0.5,2.6,0.5s1.9-0.2,2.6-0.5c0.8-0.4,1.4-0.9,2-1.6c0.5-0.7,1-1.5,1.3-2.4
		C477.2,130.9,477.4,129.8,477.4,128.7z"/>
	<path class="st1" d="M496.4,117.2c1.7,0,3.1,0.3,4.4,0.9c1.4,0.6,2.6,1.4,3.5,2.4c1,1.1,1.7,2.3,2.3,3.6c0.5,1.4,0.8,2.9,0.8,4.6
		s-0.3,3.2-0.8,4.6c-0.5,1.4-1.3,2.6-2.3,3.7c-1,1.1-2.2,1.8-3.5,2.4c-1.4,0.6-2.9,0.9-4.4,0.9c-1.7,0-3.1-0.3-4.4-0.9
		c-1.4-0.6-2.6-1.4-3.5-2.4c-1-1.1-1.7-2.3-2.3-3.7c-0.5-1.4-0.8-2.9-0.8-4.6c0-1.7,0.3-3.2,0.8-4.6c0.5-1.4,1.3-2.6,2.3-3.6
		c1-1.1,2.2-1.8,3.5-2.4C493.3,117.5,494.8,117.2,496.4,117.2z M496.4,136.5c0.9,0,1.7-0.2,2.6-0.5c0.8-0.3,1.5-0.8,2.2-1.5
		c0.6-0.7,1.1-1.5,1.5-2.4s0.5-2.1,0.5-3.3c0-1.2-0.2-2.4-0.5-3.3c-0.4-0.9-0.8-1.7-1.5-2.4c-0.6-0.7-1.4-1.1-2.2-1.5
		s-1.7-0.5-2.6-0.5s-1.7,0.2-2.6,0.5c-0.8,0.3-1.5,0.8-2.2,1.5c-0.6,0.7-1.1,1.5-1.5,2.4c-0.4,1-0.5,2-0.5,3.3
		c0,1.3,0.2,2.4,0.5,3.3c0.4,1,0.8,1.8,1.5,2.4c0.6,0.7,1.4,1.1,2.2,1.5C494.7,136.3,495.5,136.5,496.4,136.5z"/>
	<path class="st1" d="M529.1,117.9l5.6,16.3l4.8-16.3h4.4l-7.1,21.7h-4.4l-5.8-16.5l-5.6,16.5h-4.4l-7.1-21.7h4.7l4.9,16.3l5.6-16.3
		H529.1z"/>
	<path class="st1" d="M566.7,133.4c-0.3,1-0.8,1.9-1.4,2.7c-0.6,0.8-1.3,1.6-2.1,2.2c-0.8,0.6-1.8,1.1-2.9,1.4
		c-1.1,0.4-2.2,0.5-3.5,0.5c-1.4,0-2.9-0.2-4.1-0.8c-1.4-0.5-2.5-1.3-3.5-2.3c-1-1-1.8-2.2-2.4-3.7c-0.6-1.4-0.9-3.1-0.9-4.9
		c0-1.7,0.3-3.3,0.8-4.7c0.6-1.4,1.4-2.6,2.3-3.6c1-1,2-1.8,3.3-2.3s2.6-0.8,3.9-0.8c1.7,0,3.2,0.3,4.4,0.8s2.4,1.4,3.3,2.3
		c0.9,1,1.5,2.2,2,3.6c0.5,1.4,0.7,2.9,0.7,4.7c0,0.3,0,0.5,0,0.8s0,0.5-0.1,0.6h-16.3c0,1,0.2,1.9,0.5,2.6c0.3,0.8,0.8,1.5,1.4,2.1
		c0.6,0.6,1.3,1.1,2.1,1.4c0.8,0.3,1.7,0.5,2.6,0.5c1.8,0,3.2-0.5,4.1-1.3s1.6-1.9,2-3.1L566.7,133.4z M562.4,126.5
		c-0.1-1.6-0.6-2.9-1.6-3.9c-1-1.1-2.5-1.6-4.4-1.6c-0.9,0-1.7,0.2-2.4,0.5c-0.7,0.3-1.3,0.8-1.8,1.3s-0.9,1.1-1.2,1.8
		c-0.3,0.7-0.5,1.4-0.5,2L562.4,126.5L562.4,126.5z"/>
	<path class="st1" d="M584.3,122.2c-0.6-0.1-1.3-0.2-1.9-0.2c-1.8,0-3.2,0.5-4.3,1.6c-1.1,1.1-1.7,2.8-1.7,5.1v10.9h-4.2v-21.7h4.1
		v3.8c0.4-0.8,0.8-1.5,1.4-2s1.1-1,1.7-1.3c0.6-0.3,1.1-0.5,1.7-0.7c0.6-0.2,1.2-0.2,1.7-0.2c0.3,0,0.6,0,0.8,0.1
		c0.2,0,0.5,0.1,0.6,0.1L584.3,122.2L584.3,122.2z"/>
</g>
<g>
	<rect x="369.7" y="101.9" class="st0" width="3" height="43.4"/>
</g>
<g>
	<rect x="172" y="101.9" class="st0" width="3" height="43.4"/>
</g>
</svg>
