<svg id="Layer_1" data-name="Layer 1" xmlns="http://www.w3.org/2000/svg" viewBox="0 0 624.33 84.56"><defs><style>.cls-1{fill:#0d183a;}</style></defs><title>logo</title><path class="cls-1" d="M82.18,18.12H96.69l37.49,84.56h-13.1L110.65,79.85h-43L57.23,102.68H44.55ZM107,70.3,89.08,29.59,71.33,70.3Z" transform="translate(-44.55 -18.12)"/><path class="cls-1" d="M246.72,23.92A18.38,18.38,0,0,1,255.24,40a17.53,17.53,0,0,1-4.51,12.38q-4.5,4.91-13.1,6.83,21.7,3.51,21.7,20.17,0,10.88-9.23,17.1t-26.57,6.22H187.6V18.12h35Q238.2,18.12,246.72,23.92ZM223.11,54.84q9.45,0,14.66-3.62a11.57,11.57,0,0,0,5.21-10,11.45,11.45,0,0,0-5.14-10q-5.15-3.55-14.73-3.56H199.86V54.84Zm.42,38.3q11.28,0,17.27-3.75t6-10.39a12.17,12.17,0,0,0-6.06-10.93q-6.06-3.81-17.2-3.81H199.86V93.14Z" transform="translate(-44.55 -18.12)"/><path class="cls-1" d="M344.17,18.12h14.52l37.49,84.56H383.07L372.64,79.85h-43l-10.43,22.83H306.55ZM369,70.3l-17.9-40.71L333.32,70.3Z" transform="translate(-44.55 -18.12)"/><path class="cls-1" d="M449.59,18.12h11.28l53,65.23V18.12h12v84.56H514.56l-53-65.23v65.23h-12Z" transform="translate(-44.55 -18.12)"/><path class="cls-1" d="M616.88,18.12h14.51l37.49,84.56H655.77L645.35,79.85h-43l-10.43,22.83H579.25Zm24.8,52.18-17.9-40.71L606,70.3Z" transform="translate(-44.55 -18.12)"/></svg>