<svg width="39" height="47" viewBox="0 0 39 47" fill="none" xmlns="http://www.w3.org/2000/svg">
<path fill-rule="evenodd" clip-rule="evenodd" d="M28.631 19.5053C33.9072 19.5053 38.1845 15.228 38.1845 9.95185C38.1845 4.67564 33.9072 0.398438 28.631 0.398438C23.3548 0.398438 19.0776 4.67564 19.0776 9.95185C19.0776 15.228 23.3548 19.5053 28.631 19.5053ZM34.4389 6.08149C34.8278 6.47363 34.8252 7.10679 34.433 7.49569L27.9353 13.9395C27.6563 14.2163 27.2551 14.2947 26.9068 14.1756C26.6783 14.1329 26.4636 14.0108 26.3077 13.8144L24.2793 11.2586C23.9359 10.826 24.0083 10.197 24.4409 9.85365C24.8735 9.51032 25.5025 9.58267 25.8458 10.0153L27.258 11.7945L33.0247 6.0756C33.4168 5.68671 34.05 5.68934 34.4389 6.08149Z" fill="#FF6158"/>
<path fill-rule="evenodd" clip-rule="evenodd" d="M0.654297 12.9915C0.654297 10.23 2.89287 7.99146 5.6543 7.99146H25.0109C27.7724 7.99146 30.0109 10.23 30.0109 12.9915V41.9521C30.0109 44.7136 27.7723 46.9521 25.0109 46.9521H5.6543C2.89287 46.9521 0.654297 44.7136 0.654297 41.9521V12.9915ZM5.25 14.8004C5.25 14.2481 5.69772 13.8004 6.25 13.8004H16.1144C16.6666 13.8004 17.1144 14.2481 17.1144 14.8004C17.1144 15.3527 16.6666 15.8004 16.1144 15.8004H6.25C5.69772 15.8004 5.25 15.3527 5.25 14.8004ZM6.25 22.1979C5.69772 22.1979 5.25 22.6456 5.25 23.1979C5.25 23.7502 5.69772 24.1979 6.25 24.1979H16.1144C16.6666 24.1979 17.1144 23.7502 17.1144 23.1979C17.1144 22.6456 16.6666 22.1979 16.1144 22.1979H6.25ZM5.25 27.1725C5.25 26.6202 5.69772 26.1725 6.25 26.1725H23.4156C23.9678 26.1725 24.4156 26.6202 24.4156 27.1725C24.4156 27.7248 23.9678 28.1725 23.4156 28.1725H6.25C5.69772 28.1725 5.25 27.7248 5.25 27.1725ZM6.25 35.5671C5.69772 35.5671 5.25 36.0149 5.25 36.5671C5.25 37.1194 5.69772 37.5671 6.25 37.5671H23.4156C23.9678 37.5671 24.4156 37.1194 24.4156 36.5671C24.4156 36.0149 23.9678 35.5671 23.4156 35.5671H6.25ZM5.25 31.3256C5.25 30.7733 5.69772 30.3256 6.25 30.3256H16.1143C16.6665 30.3256 17.1143 30.7733 17.1143 31.3256C17.1143 31.8778 16.6665 32.3256 16.1143 32.3256H6.25C5.69772 32.3256 5.25 31.8778 5.25 31.3256ZM20.7383 30.3256C20.186 30.3256 19.7383 30.7733 19.7383 31.3256C19.7383 31.8778 20.186 32.3256 20.7383 32.3256H23.4154C23.9677 32.3256 24.4154 31.8778 24.4154 31.3256C24.4154 30.7733 23.9677 30.3256 23.4154 30.3256H20.7383Z" fill="#FFBCB9"/>
<path fill-rule="evenodd" clip-rule="evenodd" d="M30.0109 19.4063C29.5604 19.4715 29.0997 19.5053 28.631 19.5053C23.3548 19.5053 19.0776 15.228 19.0776 9.95185C19.0776 9.27992 19.147 8.6242 19.279 7.99146H25.0109C26.6633 7.99146 28.1285 8.79299 29.0388 10.0285L27.258 11.7945L25.8458 10.0153C25.5025 9.58267 24.8735 9.51032 24.4409 9.85365C24.0083 10.197 23.9359 10.826 24.2793 11.2586L26.3077 13.8144C26.4636 14.0108 26.6783 14.1329 26.9068 14.1756C27.2551 14.2947 27.6563 14.2163 27.9353 13.9395L29.909 11.9822C29.9758 12.3082 30.0109 12.6457 30.0109 12.9915V19.4063Z" fill="#DC4C44"/>
</svg>
