<svg width="41" height="37" viewBox="0 0 41 37" fill="none" xmlns="http://www.w3.org/2000/svg">
<path fill-rule="evenodd" clip-rule="evenodd" d="M28.4126 8.1027C27.8088 7.76753 27.0749 7.76752 26.4711 8.1027L15.8058 14.0235L15.8058 14.0234L15.4178 14.2388C15.2059 14.3565 15.0209 14.5093 14.8684 14.6878L14.8684 14.6878C14.5637 15.0444 14.3887 15.5032 14.3887 15.9874V28.1258C14.3887 28.8523 14.7827 29.5217 15.4179 29.8744L26.4711 36.0105C27.0749 36.3457 27.8088 36.3457 28.4126 36.0105L39.4657 29.8744C40.101 29.5217 40.495 28.8523 40.495 28.1258V15.9874C40.495 15.2609 40.101 14.5915 39.4657 14.2388L28.4126 8.1027ZM14.8684 14.6878L27.2288 20.4973C27.3641 20.5609 27.5208 20.5606 27.6559 20.4965L39.9793 14.6471C39.8339 14.486 39.6612 14.3474 39.4656 14.2388L39.0239 13.9936L27.4404 19.4918L15.8058 14.0235L15.4179 14.2388C15.206 14.3564 15.021 14.5093 14.8684 14.6878Z" fill="#FF6158"/>
<path fill-rule="evenodd" clip-rule="evenodd" d="M14.7949 0.761879C14.1911 0.426705 13.4572 0.426704 12.8534 0.761879L2.18817 6.68264L2.18813 6.68262L1.80015 6.89801C1.58827 7.01563 1.40323 7.1685 1.25069 7.34697L1.25075 7.347C0.945991 7.70359 0.770996 8.16241 0.770996 8.64661V20.7849C0.770996 21.5115 1.16502 22.1809 1.80026 22.5336L12.8534 28.6697C13.4572 29.0048 14.1911 29.0048 14.7949 28.6697L25.8481 22.5336C26.4833 22.1809 26.8773 21.5115 26.8773 20.7849V8.64661C26.8773 7.92005 26.4833 7.25064 25.8481 6.89799L14.7949 0.761879ZM1.25075 7.347L13.6111 13.1565C13.7465 13.2201 13.9031 13.2198 14.0382 13.1556L26.3616 7.30623C26.2162 7.14518 26.0435 7.00658 25.848 6.89801L25.4062 6.65279L13.8228 12.151L2.18817 6.68264L1.80026 6.89799C1.58836 7.01562 1.4033 7.1685 1.25075 7.347Z" fill="#FFBCB9"/>
<path fill-rule="evenodd" clip-rule="evenodd" d="M26.7598 7.97119C26.6611 8.00701 26.5646 8.05086 26.4711 8.10274L15.8058 14.0235L15.8058 14.0235L15.4178 14.2389C15.2059 14.3565 15.0209 14.5094 14.8684 14.6878L14.8684 14.6879C14.5637 15.0445 14.3887 15.5033 14.3887 15.9875V28.1258C14.3887 28.3598 14.4295 28.5878 14.5061 28.8013C14.6049 28.7654 14.7014 28.7216 14.7949 28.6697L25.8481 22.5336C26.4833 22.181 26.8773 21.5115 26.8773 20.785V20.3321L14.8684 14.6879C15.021 14.5094 15.206 14.3565 15.4179 14.2388L15.8058 14.0235L26.8773 19.2272V8.64664C26.8773 8.41268 26.8365 8.18464 26.7598 7.97119Z" fill="#DC4C44"/>
</svg>
