<svg width="41" height="41" viewBox="0 0 41 41" fill="none" xmlns="http://www.w3.org/2000/svg">
<path fill-rule="evenodd" clip-rule="evenodd" d="M19.7032 7.37182C18.9048 7.36967 18.1384 7.6859 17.5739 8.25049L2.72918 23.0952C1.55761 24.2667 1.5576 26.1662 2.72918 27.3378L14.104 38.7127C15.2756 39.8842 17.1751 39.8842 18.3467 38.7127L33.1913 23.868C33.7559 23.3034 34.0722 22.537 34.07 21.7386L34.0395 10.3943C34.035 8.74374 32.6981 7.40681 31.0476 7.40237L19.7032 7.37182ZM24.5485 16.8493C25.7391 18.0398 27.6694 18.0398 28.86 16.8493C30.0506 15.6587 30.0506 13.7283 28.86 12.5378C27.6694 11.3472 25.7391 11.3472 24.5485 12.5378C23.3579 13.7283 23.3579 15.6587 24.5485 16.8493Z" fill="#FFBCB9"/>
<path fill-rule="evenodd" clip-rule="evenodd" d="M16.5875 14.4259C16.0214 14.9889 15.7031 15.7544 15.7031 16.5529V37.5464C15.7031 39.2033 17.0463 40.5464 18.7031 40.5464H34.7896C36.4465 40.5464 37.7896 39.2033 37.7896 37.5464V16.5529C37.7896 15.7544 37.4713 14.9889 36.9052 14.4259L28.862 6.42583C27.6917 5.26187 25.801 5.26186 24.6308 6.42583L16.5875 14.4259ZM26.7152 17.7013C28.3989 17.7013 29.7639 16.3364 29.7639 14.6526C29.7639 12.9689 28.3989 11.6039 26.7152 11.6039C25.0314 11.6039 23.6665 12.9689 23.6665 14.6526C23.6665 16.3364 25.0314 17.7013 26.7152 17.7013Z" fill="#FF6158"/>
<path fill-rule="evenodd" clip-rule="evenodd" d="M15.7031 16.5528C15.7031 15.7544 16.0214 14.9889 16.5875 14.4258L23.6689 7.38245L29.8405 7.39906L34.0427 11.5786L34.07 21.7385C34.0722 22.537 33.7559 23.3033 33.1913 23.8679L18.3467 38.7126C17.83 39.2293 17.1717 39.5181 16.4967 39.5791C16.004 39.0446 15.7031 38.3306 15.7031 37.5464V16.5528ZM29.65 15.4808C29.7242 15.2174 29.7639 14.9396 29.7639 14.6526C29.7639 12.9688 28.3989 11.6039 26.7152 11.6039C25.2913 11.6039 24.0955 12.58 23.7602 13.8995C23.4866 14.9178 23.7494 16.0501 24.5485 16.8492C25.7391 18.0398 27.6694 18.0398 28.86 16.8492C29.2532 16.456 29.5166 15.9821 29.65 15.4808Z" fill="#DC4C44"/>
</svg>
