<svg id="Layer_1" data-name="Layer 1" xmlns="http://www.w3.org/2000/svg" viewBox="0 0 80.24 191.04"><defs><style>.cls-1,.cls-2{fill:none;stroke:#d3d3d3;stroke-linecap:round;stroke-miterlimit:10;stroke-width:3px;}.cls-2{stroke-dasharray:8.86 8.86;}</style></defs><title>string1</title><path class="cls-1" d="M696.12,287.7c1.35.73,2.66,1.45,3.94,2.18" transform="translate(-651.49 -286.2)"/><path class="cls-2" d="M707.62,294.52c14.51,9.68,22.61,20.38,22.61,35.37,0,11.79-14.91,26.91-28.27,36.8-9.07,6.71-18.46,11.7-31,11.67-8.46,0-18.8-5.26-18-16.61.64-8.6,12.35-14.61,22-15.26,19.39-1.3,27.2,15.54,26.48,31.87-1.21,27-33.44,44.9-33.21,66,.1,9.87,5.07,18.32,10.84,25" transform="translate(-651.49 -286.2)"/><path class="cls-1" d="M682.13,472.6c1.08,1.11,2.16,2.16,3.22,3.14" transform="translate(-651.49 -286.2)"/></svg>