<?xml version="1.0" encoding="utf-8"?>
<!-- Generator: Adobe Illustrator 25.0.0, SVG Export Plug-In . SVG Version: 6.00 Build 0)  -->
<svg version="1.1" id="Layer_1" xmlns="http://www.w3.org/2000/svg" xmlns:xlink="http://www.w3.org/1999/xlink" x="0px" y="0px"
	 viewBox="0 0 682 682" style="enable-background:new 0 0 682 682;" xml:space="preserve">
<path d="M647.8,187.2c-7.4-27.4-29-49-56.4-56.4c-50-13.7-250.2-13.7-250.2-13.7s-200.1,0-250.2,13.2c-26.9,7.4-49,29.5-56.4,56.9
	C21.6,237.2,21.6,341,21.6,341s0,104.3,13.2,153.8c7.4,27.4,29,49,56.4,56.4c50.6,13.7,250.2,13.7,250.2,13.7s200.1,0,250.2-13.2
	c27.4-7.4,49-29,56.4-56.4c13.2-50,13.2-153.8,13.2-153.8S661.4,237.2,647.8,187.2z M277.5,436.9V245.1L443.9,341L277.5,436.9z"/>
</svg>
