<?xml version="1.0" encoding="UTF-8"?>
<svg width="682px" height="247px" viewBox="0 0 682 247" version="1.1" xmlns="http://www.w3.org/2000/svg" xmlns:xlink="http://www.w3.org/1999/xlink">
    <!-- Generator: Sketch 50.2 (55047) - http://www.bohemiancoding.com/sketch -->
    <title>Group</title>
    <desc>Created with Sketch.</desc>
    <defs></defs>
    <g id="Page-1" stroke="none" stroke-width="1" fill="none" fill-rule="evenodd">
        <g id="Group" fill-rule="nonzero">
            <g id="logo-EDB-01">
                <rect id="Rectangle-path" fill="#80BA27" x="0.03" y="179.64" width="92.32" height="66.83"></rect>
                <path d="M178.89,60.76 C198,60.76 213.5,47.29 213.5,30.67 C213.5,14.05 198,0.57 178.89,0.57 L118.43,0.57 L118.43,60.76 L178.89,60.76 Z" id="Shape" fill="#00548B"></path>
                <path d="M273.36,88.81 C273.357305,88.5094872 273.475492,88.2204986 273.687995,88.0079954 C273.900499,87.7954922 274.189487,87.6773047 274.49,87.68 L299.21,87.68 C299.834082,87.68 300.34,88.1859182 300.34,88.81 L300.34,95.32 C300.34,95.9440818 299.834082,96.45 299.21,96.45 L282.67,96.45 L282.67,103.85 L296.28,103.85 C296.899044,103.870981 297.394473,104.370795 297.41,104.99 L297.41,111.5 C297.41,112.124082 296.904082,112.63 296.28,112.63 L282.67,112.63 L282.67,120.69 L299.21,120.69 C299.834082,120.69 300.34,121.195918 300.34,121.82 L300.34,128.33 C300.34,128.954082 299.834082,129.46 299.21,129.46 L274.49,129.46 C274.189487,129.462695 273.900499,129.344508 273.687995,129.132005 C273.475492,128.919501 273.357305,128.630513 273.36,128.33 L273.36,88.81 Z" id="Shape" fill="#00548B"></path>
                <path d="M325.66,87.08 C331.022925,86.9182118 336.225964,88.9179949 340.1,92.63 C340.351406,92.8300857 340.502761,93.1300913 340.514298,93.4511929 C340.525834,93.7722945 340.396399,94.0823883 340.16,94.3 L335.51,99.14 C335.312507,99.3415659 335.042192,99.4551531 334.76,99.4551531 C334.477808,99.4551531 334.207493,99.3415659 334.01,99.14 C331.783821,97.1766924 328.91824,96.0923225 325.95,96.09 C319.21,96.09 314.25,101.71 314.25,108.39 C314.172112,111.563622 315.373018,114.63538 317.582722,116.914667 C319.792427,119.193954 322.825489,120.489488 326,120.51 C328.918147,120.506256 331.744964,119.492136 334,117.64 C334.46509,117.277012 335.124165,117.302361 335.56,117.7 L340.21,122.7 C340.61157,123.170665 340.585488,123.87053 340.15,124.31 C336.27083,128.078949 331.058261,130.160381 325.65,130.1 C313.775878,130.1 304.15,120.474122 304.15,108.6 C304.15,96.7258779 313.775878,87.1 325.65,87.1 L325.66,87.08 Z" id="Shape" fill="#00548B"></path>
                <path d="M363.15,87.08 C375.018531,87.0469094 384.666711,96.6414134 384.699832,108.509945 C384.732954,120.378476 375.138475,130.02668 363.269944,130.059833 C351.401413,130.092985 341.753183,120.498531 341.72,108.63 C341.693411,102.927264 343.938826,97.4486868 347.960038,93.4049568 C351.981251,89.3612268 357.447205,87.0852553 363.15,87.08 Z M363.15,120.51 C367.990113,120.534262 372.366029,117.634105 374.229485,113.167023 C376.092941,108.699941 375.075225,103.549815 371.652705,100.127295 C368.230185,96.704775 363.080059,95.6870587 358.612977,97.5505149 C354.145895,99.413971 351.245738,103.789887 351.27,108.63 C351.33502,115.164021 356.615979,120.44498 363.15,120.51 Z" id="Shape" fill="#00548B"></path>
                <path d="M389.42,88.15 C389.452106,87.5455803 389.95476,87.0737915 390.56,87.08 L392.05,87.08 L415.87,110 L415.93,110 L415.93,88.81 C415.93,88.1859182 416.435918,87.68 417.06,87.68 L424.23,87.68 C424.845304,87.7006998 425.3393,88.1946963 425.36,88.81 L425.36,129 C425.33309,129.602842 424.833412,130.075988 424.23,130.07 L423.23,130.07 C422.952867,130.03367 422.688664,129.930733 422.46,129.77 L398.88,106.07 L398.82,106.07 L398.82,128.34 C398.820012,128.641435 398.699587,128.930381 398.485503,129.142587 C398.271419,129.354793 397.981424,129.472668 397.68,129.47 L390.58,129.47 C389.960795,129.454473 389.460981,128.959044 389.44,128.34 L389.42,88.15 Z" id="Shape" fill="#00548B"></path>
                <path d="M452.83,87.08 C464.698531,87.0469094 474.346711,96.6414134 474.379832,108.509945 C474.412954,120.378476 464.818475,130.02668 452.949944,130.059833 C441.081413,130.092985 431.433183,120.498531 431.4,108.63 C431.373411,102.927264 433.618826,97.4486868 437.640038,93.4049568 C441.661251,89.3612268 447.127205,87.0852553 452.83,87.08 Z M452.83,120.51 C457.674489,120.554573 462.065696,117.667408 463.94496,113.202049 C465.824224,108.73669 464.818977,103.578406 461.400492,100.145474 C457.982008,96.7125408 452.82801,95.6855469 448.354765,97.5459611 C443.881519,99.4063754 440.97586,103.785366 441,108.63 C441.064502,115.144817 446.315513,120.418022 452.83,120.51 Z" id="Shape" fill="#00548B"></path>
                <path d="M483.28,88 C483.373107,87.4694918 483.821949,87.074677 484.36,87.05 L485.31,87.05 C485.718399,87.0839273 486.087876,87.3056139 486.31,87.65 L500.15,113.44 L500.27,113.44 L514.12,87.65 C514.342124,87.3056139 514.711601,87.0839273 515.12,87.05 L516.12,87.05 C516.658051,87.074677 517.106893,87.4694918 517.2,88 L523.94,128.12 C524.008989,128.451926 523.919606,128.797055 523.698169,129.053764 C523.476733,129.310474 523.148456,129.449535 522.81,129.43 L515.81,129.43 C515.257628,129.410863 514.788431,129.019866 514.67,128.48 L511.98,110.03 L511.87,110.03 L501.87,129.37 C501.652404,129.72873 501.285391,129.970959 500.87,130.03 L499.7,130.03 C499.27911,129.985882 498.906037,129.739653 498.7,129.37 L488.61,110.03 L488.49,110.03 L485.87,128.48 C485.76874,129.0301 485.289342,129.429598 484.73,129.43 L477.73,129.43 C477.391065,129.448687 477.062486,129.309845 476.839649,129.053778 C476.616813,128.797712 476.524681,128.453106 476.59,128.12 L483.28,88 Z" id="Shape" fill="#00548B"></path>
                <path d="M530.39,88.81 C530.4107,88.1946963 530.904696,87.7006998 531.52,87.68 L538.69,87.68 C539.305304,87.7006998 539.7993,88.1946963 539.82,88.81 L539.82,128.33 C539.7993,128.945304 539.305304,129.4393 538.69,129.46 L531.52,129.46 C530.904696,129.4393 530.4107,128.945304 530.39,128.33 L530.39,88.81 Z" id="Shape" fill="#00548B"></path>
                <path d="M567.4,87.08 C572.765204,86.9222785 577.969828,88.9212866 581.85,92.63 C582.101406,92.8300857 582.252761,93.1300913 582.264298,93.4511929 C582.275834,93.7722945 582.146399,94.0823883 581.91,94.3 L577.25,99.14 C577.060303,99.3518604 576.789376,99.4729355 576.505,99.4729355 C576.220624,99.4729355 575.949697,99.3518604 575.76,99.14 C573.533821,97.1766924 570.66824,96.0923225 567.7,96.09 C560.95,96.09 556,101.71 556,108.39 C555.922086,111.565345 557.124352,114.638633 559.336225,116.918217 C561.548099,119.197801 564.583749,120.492161 567.76,120.51 C570.678147,120.506256 573.504964,119.492136 575.76,117.64 C576.221898,117.278506 576.877429,117.303882 577.31,117.7 L581.97,122.7 C582.37157,123.170665 582.345488,123.87053 581.91,124.31 C578.027759,128.080472 572.811508,130.16194 567.4,130.1 C555.525878,130.1 545.9,120.474122 545.9,108.6 C545.9,96.7258779 555.525878,87.1 567.4,87.1 L567.4,87.08 Z" id="Shape" fill="#00548B"></path>
                <path d="M273.36,147.13 C273.348553,146.522731 273.823224,146.017007 274.43,145.99 L289,145.99 C296.574034,145.824296 303.644732,149.770222 307.480393,156.303304 C311.316053,162.836386 311.316053,170.933614 307.480393,177.466696 C303.644732,183.999778 296.574034,187.945704 289,187.78 L274.43,187.78 C273.827158,187.75309 273.354012,187.253412 273.36,186.65 L273.36,147.13 Z M288.36,178.95 C295.11,178.95 300,173.63 300,166.83 C300,160.03 295.11,154.77 288.36,154.77 L282.63,154.77 L282.63,179 L288.36,178.95 Z" id="Shape" fill="#00548B"></path>
                <path d="M316.05,147.13 C316.047332,146.828576 316.165207,146.538581 316.377413,146.324497 C316.589619,146.110413 316.878565,145.989988 317.18,145.99 L341.9,145.99 C342.525696,145.995489 343.030024,146.50428 343.03,147.13 L343.03,153.63 C343.030024,154.25572 342.525696,154.764511 341.9,154.77 L325.36,154.77 L325.36,162.17 L339,162.17 C339.619044,162.190981 340.114473,162.690795 340.13,163.31 L340.13,169.81 C340.146481,170.119948 340.034744,170.42303 339.821015,170.648107 C339.607287,170.873184 339.310386,171.000438 339,171 L325.36,171 L325.36,179 L341.9,179 C342.524082,179 343.03,179.505918 343.03,180.13 L343.03,186.64 C343.03,187.264082 342.524082,187.77 341.9,187.77 L317.18,187.77 C316.555918,187.77 316.05,187.264082 316.05,186.64 L316.05,147.13 Z" id="Shape" fill="#00548B"></path>
                <path d="M344.47,147.55 C344.287697,147.211036 344.30345,146.799889 344.511155,146.475869 C344.718861,146.151848 345.085879,145.965872 345.47,145.99 L353.41,145.99 C353.838541,146.011816 354.221462,146.264544 354.41,146.65 L364.26,168.44 L364.61,168.44 L374.46,146.65 C374.648538,146.264544 375.031459,146.011816 375.46,145.99 L383.4,145.99 C383.784121,145.965872 384.151139,146.151848 384.358845,146.475869 C384.56655,146.799889 384.582303,147.211036 384.4,147.55 L365.66,187.72 C365.478474,188.111556 365.091393,188.36703 364.66,188.38 L364.07,188.38 C363.638607,188.36703 363.251526,188.111556 363.07,187.72 L344.47,147.55 Z" id="Shape" fill="#00548B"></path>
                <path d="M388.17,147.13 C388.175431,146.508182 388.678182,146.005431 389.3,146 L414,146 C414.301435,145.999988 414.590381,146.120413 414.802587,146.334497 C415.014793,146.548581 415.132668,146.838576 415.13,147.14 L415.13,153.64 C415.132668,153.941424 415.014793,154.231419 414.802587,154.445503 C414.590381,154.659587 414.301435,154.780012 414,154.78 L397.48,154.78 L397.48,162.18 L411.09,162.18 C411.710823,162.200711 412.209289,162.699177 412.23,163.32 L412.23,169.82 C412.23,170.449605 411.719605,170.96 411.09,170.96 L397.48,170.96 L397.48,179 L414,179 C414.300513,178.997305 414.589501,179.115492 414.802005,179.327995 C415.014508,179.540499 415.132695,179.829487 415.13,180.13 L415.13,186.64 C415.13,187.264082 414.624082,187.77 414,187.77 L389.3,187.77 C388.675918,187.77 388.17,187.264082 388.17,186.64 L388.17,147.13 Z" id="Shape" fill="#00548B"></path>
                <path d="M422,147.13 C422.00498,146.519572 422.489927,146.021399 423.1,146 L430.2,146 C430.820823,146.020711 431.319289,146.519177 431.34,147.14 L431.34,179 L445.54,179 C445.841424,178.997332 446.131419,179.115207 446.345503,179.327413 C446.559587,179.539619 446.680012,179.828565 446.68,180.13 L446.68,186.64 C446.674511,187.265696 446.16572,187.770024 445.54,187.77 L423.1,187.77 C422.47428,187.770024 421.965489,187.265696 421.96,186.64 L422,147.13 Z" id="Shape" fill="#00548B"></path>
                <path d="M468.23,145.4 C480.091998,145.367037 489.737352,154.951442 489.779582,166.813411 C489.821812,178.675379 480.244944,188.328218 468.383013,188.379715 C456.521081,188.431211 446.860764,178.861888 446.8,167 C446.760057,161.288626 448.999568,155.797165 453.022231,151.742591 C457.044894,147.688017 462.518489,145.405186 468.23,145.4 Z M468.23,178.83 C473.074634,178.85414 477.453625,175.948481 479.314039,171.475235 C481.174453,167.00199 480.147459,161.847992 476.714526,158.429508 C473.281594,155.011023 468.12331,154.005776 463.657951,155.88504 C459.192592,157.764304 456.305427,162.155511 456.35,167 C456.441978,173.514487 461.715183,178.765498 468.23,178.83 Z" id="Shape" fill="#00548B"></path>
                <path d="M494.56,147.13 C494.565489,146.504304 495.07428,145.999976 495.7,146 L510.09,146 C514.933402,145.856782 519.472528,148.355059 521.942782,152.523619 C524.413037,156.692179 524.424711,161.873387 521.973266,166.053036 C519.52182,170.232686 514.993998,172.751391 510.15,172.63 L503.88,172.63 L503.88,186.63 C503.854173,187.246916 503.35712,187.73961 502.74,187.76 L495.74,187.76 C495.11428,187.760024 494.605489,187.255696 494.6,186.63 L494.56,147.13 Z M509.56,163.9 C510.81162,163.908049 512.014309,163.414404 512.899357,162.529357 C513.784404,161.644309 514.278049,160.44162 514.27,159.19 C514.236117,157.97773 513.71968,156.829149 512.835348,155.999267 C511.951017,155.169385 510.771976,154.726881 509.56,154.77 L503.89,154.77 L503.89,163.9 L509.56,163.9 Z" id="Shape" fill="#00548B"></path>
                <path d="M530.86,146.35 C530.927756,145.797788 531.384215,145.37514 531.94,145.35 L532.89,145.35 C533.295653,145.384544 533.663602,145.601634 533.89,145.94 L547.74,171.73 L547.86,171.73 L561.73,146 C561.956398,145.661634 562.324347,145.444544 562.73,145.41 L563.73,145.41 C564.283643,145.435818 564.736839,145.859366 564.8,146.41 L571.55,186.53 C571.615319,186.863106 571.523187,187.207712 571.300351,187.463778 C571.077514,187.719845 570.748935,187.858687 570.41,187.84 L563.41,187.84 C562.861411,187.816411 562.397481,187.426381 562.28,186.89 L559.59,168.44 L559.47,168.44 L549.47,187.78 C549.252404,188.13873 548.885391,188.380959 548.47,188.44 L547.39,188.44 C546.968519,188.397536 546.594748,188.150847 546.39,187.78 L536.3,168.44 L536.18,168.44 L533.55,186.89 C533.445866,187.434327 532.974124,187.830924 532.42,187.84 L525.42,187.84 C525.081544,187.859535 524.753267,187.720474 524.531831,187.463764 C524.310394,187.207055 524.221011,186.861926 524.29,186.53 L530.86,146.35 Z" id="Shape" fill="#00548B"></path>
                <path d="M578,147.13 C578,146.500395 578.510395,145.99 579.14,145.99 L603.85,145.99 C604.479605,145.99 604.99,146.500395 604.99,147.13 L604.99,153.63 C604.99,154.259605 604.479605,154.77 603.85,154.77 L587.29,154.77 L587.29,162.17 L600.9,162.17 C601.516916,162.195827 602.00961,162.69288 602.03,163.31 L602.03,169.81 C602.043583,170.119185 601.930878,170.420605 601.717771,170.645027 C601.504665,170.869448 601.209473,170.997583 600.9,171 L587.29,171 L587.29,179 L603.82,179 C604.121424,178.997332 604.411419,179.115207 604.625503,179.327413 C604.839587,179.539619 604.960012,179.828565 604.96,180.13 L604.96,186.64 C604.954511,187.265696 604.44572,187.770024 603.82,187.77 L579.11,187.77 C578.48428,187.770024 577.975489,187.265696 577.97,186.64 L578,147.13 Z" id="Shape" fill="#00548B"></path>
                <path d="M611.71,146.47 C611.731718,145.864799 612.234515,145.388699 612.84,145.4 L614.33,145.4 L638.15,168.32 L638.21,168.32 L638.21,147.13 C638.21,146.500395 638.720395,145.99 639.35,145.99 L646.51,145.99 C647.129044,146.010981 647.624473,146.510795 647.64,147.13 L647.64,187.3 C647.618343,187.906783 647.117141,188.385808 646.51,188.38 L645.51,188.38 C645.229781,188.343693 644.962327,188.240826 644.73,188.08 L621.15,164.38 L621.09,164.38 L621.09,186.65 C621.084511,187.275696 620.57572,187.780024 619.95,187.78 L612.85,187.78 C612.234696,187.7593 611.7407,187.265304 611.72,186.65 L611.71,146.47 Z" id="Shape" fill="#00548B"></path>
                <path d="M662.1,154.77 L653.56,154.77 C653.258565,154.770012 652.969619,154.649587 652.757413,154.435503 C652.545207,154.221419 652.427332,153.931424 652.43,153.63 L652.43,147.13 C652.427332,146.828576 652.545207,146.538581 652.757413,146.324497 C652.969619,146.110413 653.258565,145.989988 653.56,145.99 L680.07,145.99 C680.695696,145.995489 681.200024,146.50428 681.2,147.13 L681.2,153.63 C681.200024,154.25572 680.695696,154.764511 680.07,154.77 L671.53,154.77 L671.53,186.65 C671.504173,187.266916 671.00712,187.75961 670.39,187.78 L663.23,187.78 C662.614696,187.7593 662.1207,187.265304 662.1,186.65 L662.1,154.77 Z" id="Shape" fill="#00548B"></path>
                <path d="M273.36,205.45 C273.357332,205.148576 273.475207,204.858581 273.687413,204.644497 C273.899619,204.430413 274.188565,204.309988 274.49,204.31 L288.4,204.31 C295.45,204.31 301.24,209.15 301.24,215.41 C301.24,220.01 297.12,223.35 294.31,224.85 C297.47,226.16 302.31,229.08 302.31,234.58 C302.31,241.26 296.4,246.1 289.31,246.1 L274.49,246.1 C274.188565,246.100012 273.899619,245.979587 273.687413,245.765503 C273.475207,245.551419 273.357332,245.261424 273.36,244.96 L273.36,205.45 Z M287.36,221.27 C289.693155,221.220805 291.552431,219.303566 291.53,216.97 C291.547524,215.868636 291.1101,214.80879 290.32088,214.040389 C289.53166,213.271988 288.460502,212.863047 287.36,212.91 L282.7,212.91 L282.7,221.27 L287.36,221.27 Z M288.13,237.56 C289.278396,237.552071 290.376604,237.088254 291.183016,236.270589 C291.989429,235.452925 292.437984,234.348396 292.43,233.2 C292.43,230.82 289.86,229.03 287.54,229.03 L282.7,229.03 L282.7,237.56 L288.13,237.56 Z" id="Shape" fill="#00548B"></path>
                <path d="M327.09,203.71 C335.787697,203.681705 343.645637,208.896623 346.998392,216.922192 C350.351147,224.947761 348.538162,234.202797 342.405124,240.370177 C336.272087,246.537557 327.027319,248.402194 318.983154,245.094306 C310.938988,241.786417 305.680273,233.957719 305.66,225.26 C305.633411,219.557264 307.878826,214.078687 311.900038,210.034957 C315.921251,205.991227 321.387205,203.715255 327.09,203.71 Z M327.09,237.15 C331.929207,237.174276 336.3045,234.275212 338.168555,229.809362 C340.03261,225.343513 339.016741,220.194166 335.596302,216.770848 C332.175863,213.347529 327.027373,212.327328 322.559957,214.187625 C318.09254,216.047922 315.189796,220.420774 315.21,225.26 C315.269609,231.797926 320.552126,237.08489 327.09,237.15 Z" id="Shape" fill="#00548B"></path>
                <path d="M348.89,244.55 L367.57,204.37 C367.764904,203.990195 368.144152,203.739891 368.57,203.71 L369.16,203.71 C369.585848,203.739891 369.965096,203.990195 370.16,204.37 L388.84,244.55 C389.024222,244.887629 389.009102,245.298962 388.800591,245.622155 C388.592079,245.945349 388.223548,246.128674 387.84,246.1 L381.21,246.1 C380.14,246.1 379.66,245.74 379.12,244.61 L377,239.89 L360.76,239.89 L358.62,244.67 C358.277804,245.553332 357.416944,246.125905 356.47,246.1 L349.9,246.1 C349.501584,246.175708 349.096895,246.003293 348.875493,245.663517 C348.654091,245.323741 348.659821,244.883893 348.89,244.55 Z M373.42,231.77 L368.88,221.92 L368.82,221.92 L364.35,231.77 L373.42,231.77 Z" id="Shape" fill="#00548B"></path>
                <path d="M392.59,205.45 C392.589976,204.82428 393.094304,204.315489 393.72,204.31 L411.57,204.31 C418.71083,204.309789 424.515071,210.069381 424.57,217.21 C424.57,222.7 420.93,227.11 415.73,229.21 L423.91,244.37 C424.132725,244.724777 424.140916,245.173653 423.931282,245.536319 C423.721649,245.898985 423.328592,246.115927 422.91,246.1 L415,246.1 C414.592296,246.119472 414.20733,245.91159 414,245.56 L406.06,229.74 L402,229.74 L402,245 C401.97961,245.61712 401.486916,246.114173 400.87,246.14 L393.76,246.14 C393.134304,246.134511 392.629976,245.62572 392.63,245 L392.59,205.45 Z M410.8,222.16 C413.339536,222.021952 415.32844,219.923285 415.33,217.38 C415.308275,214.887204 413.292796,212.871725 410.8,212.85 L402,212.85 L402,222.16 L410.8,222.16 Z" id="Shape" fill="#00548B"></path>
                <path d="M431.4,205.45 C431.393791,204.84476 431.86558,204.342106 432.47,204.31 L447,204.31 C454.574034,204.144296 461.644732,208.090222 465.480393,214.623304 C469.316053,221.156386 469.316053,229.253614 465.480393,235.786696 C461.644732,242.319778 454.574034,246.265704 447,246.1 L432.47,246.1 C431.880874,246.068862 431.41484,245.589762 431.4,245 L431.4,205.45 Z M446.4,237.26 C453.15,237.26 458.04,231.95 458.04,225.15 C458.04,218.35 453.15,213.09 446.4,213.09 L440.67,213.09 L440.67,237.26 L446.4,237.26 Z" id="Shape" fill="#00548B"></path>
                <path d="M487.21,221.18 C487.241696,220.85628 487.525562,220.616767 487.85,220.64 L488.42,220.64 C488.6766,220.628945 488.915649,220.770023 489.03,221 L496.91,237.89 L497.01,237.89 L504.89,221 C504.995705,220.762148 505.240686,220.617569 505.5,220.64 L506.07,220.64 C506.394438,220.616767 506.678304,220.85628 506.71,221.18 L510.94,245.23 C511.008231,245.431272 510.970387,245.653378 510.839353,245.820698 C510.70832,245.988018 510.501759,246.077997 510.29,246.06 L507,246.06 C506.683777,246.03716 506.413878,245.822829 506.32,245.52 L504.24,232 L504.14,232 L497.87,246 C497.77414,246.249661 497.52684,246.407771 497.26,246.39 L496.62,246.39 C496.352788,246.399902 496.106775,246.245152 496,246 L489.68,232 L489.57,232 L487.49,245.57 C487.422756,245.873672 487.160657,246.094818 486.85,246.11 L483.63,246.11 C483.417643,246.123748 483.211686,246.034261 483.076824,245.869651 C482.941962,245.70504 482.894743,245.485502 482.95,245.28 L487.21,221.18 Z" id="Shape" fill="#00548B"></path>
                <path d="M514,245.12 L525.14,221 C525.233922,220.752109 525.475054,220.591355 525.74,220.6 L526.1,220.6 C526.369439,220.58368 526.617566,220.746386 526.71,221 L537.71,245.08 C537.819828,245.285537 537.809254,245.534527 537.682397,245.730013 C537.555539,245.925499 537.33245,246.036579 537.1,246.02 L534,246.02 C533.540829,246.038276 533.128306,245.741259 533,245.3 L531.24,241.43 L520.54,241.43 L518.79,245.3 C518.637319,245.723466 518.240028,246.009516 517.79,246.02 L514.67,246.02 C514.438645,246.05209 514.208181,245.955596 514.068706,245.768241 C513.929231,245.580887 513.902897,245.332429 514,245.12 Z M529.47,237.5 L525.89,229.63 L525.78,229.63 L522.27,237.5 L529.47,237.5 Z" id="Shape" fill="#00548B"></path>
                <path d="M539.56,221.68 C539.570461,221.308866 539.868866,221.010461 540.24,221 L543.64,221 C544.015554,221 544.32,221.304446 544.32,221.68 L544.32,236.32 C544.236086,238.233992 545.209392,240.039623 546.854384,241.021667 C548.499375,242.00371 550.550625,242.00371 552.195616,241.021667 C553.840608,240.039623 554.813914,238.233992 554.73,236.32 L554.73,221.68 C554.73,221.304446 555.034446,221 555.41,221 L558.81,221 C559.181134,221.010461 559.479539,221.308866 559.49,221.68 L559.49,236.57 C559.05542,241.750582 554.723777,245.734072 549.525,245.734072 C544.326223,245.734072 539.99458,241.750582 539.56,236.57 L539.56,221.68 Z" id="Shape" fill="#00548B"></path>
                <path d="M564.93,221.68 C564.927275,221.498831 564.998043,221.324283 565.126163,221.196163 C565.254283,221.068043 565.428831,220.997275 565.61,221 L575.84,221 C580.118017,220.972262 583.611499,224.412066 583.65,228.69 C583.552568,231.967842 581.445167,234.846632 578.35,235.93 L583.25,245.02 C583.36328,245.232337 583.355886,245.488735 583.230558,245.69419 C583.10523,245.899646 582.880638,246.023553 582.64,246.02 L578.89,246.02 C578.648304,246.034873 578.420695,245.905371 578.31,245.69 L573.55,236.21 L569.55,236.21 L569.55,245.34 C569.53471,245.709035 569.239035,246.00471 568.87,246.02 L565.58,246.02 C565.204446,246.02 564.9,245.715554 564.9,245.34 L564.93,221.68 Z M575.45,232.42 C577.425049,232.36573 578.996173,230.745785 578.99,228.77 C578.946712,226.842926 577.377532,225.300343 575.45,225.29 L569.61,225.29 L569.61,232.42 L575.45,232.42 Z" id="Shape" fill="#00548B"></path>
                <path d="M589.47,221.68 C589.48529,221.310965 589.780965,221.01529 590.15,221 L593.48,221 C593.851134,221.010461 594.149539,221.308866 594.16,221.68 L594.16,245.38 C594.14471,245.749035 593.849035,246.04471 593.48,246.06 L590.15,246.06 C589.782997,246.040119 589.489881,245.747003 589.47,245.38 L589.47,221.68 Z" id="Shape" fill="#00548B"></path>
                <path d="M604.75,225.29 L599.28,225.29 C599.098831,225.292725 598.924283,225.221957 598.796163,225.093837 C598.668043,224.965717 598.597275,224.791169 598.6,224.61 L598.6,221.68 C598.597275,221.498831 598.668043,221.324283 598.796163,221.196163 C598.924283,221.068043 599.098831,220.997275 599.28,221 L614.92,221 C615.295554,221 615.6,221.304446 615.6,221.68 L615.6,224.61 C615.6,224.985554 615.295554,225.29 614.92,225.29 L609.44,225.29 L609.44,245.38 C609.42471,245.749035 609.129035,246.04471 608.76,246.06 L605.43,246.06 C605.062997,246.040119 604.769881,245.747003 604.75,245.38 L604.75,225.29 Z" id="Shape" fill="#00548B"></path>
                <path d="M620,221.68 C620.010461,221.308866 620.308866,221.010461 620.68,221 L624,221 C624.371134,221.010461 624.669539,221.308866 624.68,221.68 L624.68,245.38 C624.66471,245.749035 624.369035,246.04471 624,246.06 L620.67,246.06 C620.300965,246.04471 620.00529,245.749035 619.99,245.38 L620,221.68 Z" id="Shape" fill="#00548B"></path>
                <path d="M631.59,221.68 C631.600461,221.308866 631.898866,221.010461 632.27,221 L635.67,221 C636.045554,221 636.35,221.304446 636.35,221.68 L636.35,236.32 C636.35,239.197404 638.682596,241.53 641.56,241.53 C644.437404,241.53 646.77,239.197404 646.77,236.32 L646.77,221.68 C646.767275,221.498831 646.838043,221.324283 646.966163,221.196163 C647.094283,221.068043 647.268831,220.997275 647.45,221 L650.85,221 C651.221134,221.010461 651.519539,221.308866 651.53,221.68 L651.53,236.57 C651.125759,241.776976 646.782644,245.795984 641.56,245.795984 C636.337356,245.795984 631.994241,241.776976 631.59,236.57 L631.59,221.68 Z" id="Shape" fill="#00548B"></path>
                <path d="M656.92,242.55 L658.21,240.33 C658.328469,240.123231 658.530097,239.977357 658.763549,239.929519 C658.997001,239.88168 659.239753,239.936492 659.43,240.08 C659.61,240.18 662.51,242.3 664.83,242.3 C665.629507,242.371891 666.424476,242.120368 667.037129,241.601681 C667.649781,241.082994 668.029007,240.340412 668.09,239.54 C668.09,237.71 666.55,236.46 663.55,235.25 C660.18,233.89 656.82,231.74 656.82,227.51 C656.82,224.33 659.18,220.64 664.82,220.64 C667.398441,220.67342 669.904546,221.497154 672,223 C672.372976,223.274705 672.465301,223.793483 672.21,224.18 L670.85,226.18 C670.742227,226.403682 670.549485,226.574981 670.314697,226.655748 C670.07991,226.736515 669.822574,226.720043 669.6,226.61 C669.32,226.43 666.6,224.61 664.6,224.61 C662.6,224.61 661.45,225.97 661.45,227.12 C661.45,228.8 662.77,229.95 665.67,231.12 C669.14,232.51 673.15,234.59 673.15,239.21 C673.15,242.89 669.97,246.29 664.92,246.29 C662.037116,246.376488 659.226186,245.381248 657.04,243.5 C656.78,243.3 656.6,243.12 656.92,242.55 Z" id="Shape" fill="#00548B"></path>
                <rect id="Rectangle-path" fill="#00548B" x="0.03" y="86.83" width="92.32" height="66.83"></rect>
                <path d="M118.43,179.52 C118.43,197.32 118.43,228.83 118.43,246.63 L150.93,246.63 C216.82,246.63 230.61,204.68 230.61,167.87 L230.61,166 C219.69,174.66 208.34,179.51 190.61,179.51 L118.43,179.52 Z" id="Shape" fill="#00548B"></path>
                <path d="M118.43,86.84 L118.43,153.38 L190.63,153.38 C211.76,153.38 228.89,138.48 228.89,120.11 C228.89,101.74 211.76,86.84 190.63,86.84 L118.43,86.84 Z" id="Shape" fill="#00A3CC"></path>
            </g>
        </g>
    </g>
</svg>