<svg id="Layer_1" data-name="Layer 1" xmlns="http://www.w3.org/2000/svg" xmlns:xlink="http://www.w3.org/1999/xlink" viewBox="0 0 55 55"><defs><style>.cls-1{fill:url(#linear-gradient);}.cls-2{fill:#52bd95;}.cls-3{fill:#5dd6a9;}</style><linearGradient id="linear-gradient" x1="52.04" y1="27.5" x2="8.09" y2="27.5" gradientUnits="userSpaceOnUse"><stop offset="0" stop-color="#f6fef4"/><stop offset="0.6" stop-color="#e6fce1"/></linearGradient></defs><rect class="cls-1" x="3.5" y="3.5" width="48" height="48" rx="10"/><g id="Layer_2" data-name="Layer 2"><g id="Layer_1-2" data-name="Layer 1-2"><path id="bag" class="cls-2" d="M36.78,33.07l-.73-4.16H18.72L18,33.07a3.43,3.43,0,0,0,2.79,4,3,3,0,0,0,.6.06h12a3.44,3.44,0,0,0,3.41-3.46A2.75,2.75,0,0,0,36.78,33.07Z"/></g></g><path class="cls-3" d="M35.31,24.68a2.32,2.32,0,0,0-2.26-1.9h-1V22.6a4.7,4.7,0,1,0-9.4,0v.18h-1a2.31,2.31,0,0,0-2.26,1.9l-.74,4.23H36.05Zm-5.16-1.89H24.62v-.18a2.8,2.8,0,0,1,2.77-2.76,2.77,2.77,0,0,1,2.76,2.76Z"/></svg>