<svg id="Layer_1" data-name="Layer 1" xmlns="http://www.w3.org/2000/svg" xmlns:xlink="http://www.w3.org/1999/xlink" viewBox="0 0 55 55"><defs><style>.cls-1{fill:url(#linear-gradient);}.cls-2{fill:#f95d5d;}.cls-3{fill:#ce1515;}</style><linearGradient id="linear-gradient" x1="3.5" y1="27.5" x2="51.5" y2="27.5" gradientUnits="userSpaceOnUse"><stop offset="0" stop-color="#ffd9d9"/><stop offset="1" stop-color="#ffe9e9"/></linearGradient></defs><rect class="cls-1" x="3.5" y="3.5" width="48" height="48" rx="10"/><g id="Layer_2" data-name="Layer 2"><g id="Layer_1-2" data-name="Layer 1-2"><path class="cls-2" d="M30.94,37.32a2.32,2.32,0,0,1-1.11.62A10.7,10.7,0,0,1,19.45,20.43c.15-.17.3-.33.46-.49a10.51,10.51,0,0,1,2.25-1.72A11,11,0,0,0,21.49,22a10.86,10.86,0,0,0,2.45,6.88,1.7,1.7,0,0,0-.51-.08,1.83,1.83,0,0,0-1.82,1.81,1.84,1.84,0,0,0,.53,1.29,1.82,1.82,0,0,0,3.1-1.28,1.43,1.43,0,0,0-.07-.46,10.85,10.85,0,0,0,4.66,2.45,2,2,0,0,0,.5.82l.61.6A2.34,2.34,0,0,1,30.94,37.32Z"/></g></g><path class="cls-3" d="M35,19.94a10.69,10.69,0,0,0-12.88-1.72A11,11,0,0,0,21.49,22a10.86,10.86,0,0,0,2.45,6.88,1.77,1.77,0,0,1,1.23,1.28,10.85,10.85,0,0,0,4.66,2.45,2.14,2.14,0,0,1,.53-2.25,2.17,2.17,0,0,1,3,0l.6.58a2.31,2.31,0,0,0,3.28,0,2.24,2.24,0,0,0,.62-1.1A10.63,10.63,0,0,0,35,19.94Zm-9.88,5.25a1.81,1.81,0,1,1,.53-1.28A1.82,1.82,0,0,1,25.16,25.19Zm6.71-.1a1.81,1.81,0,1,1,0-2.56A1.8,1.8,0,0,1,31.87,25.09Z"/></svg>