<svg id="Layer_1" data-name="Layer 1" xmlns="http://www.w3.org/2000/svg" viewBox="0 0 30 30"><defs><style>.cls-1{fill:#8185a7;}.cls-2{fill:#b1b4d3;}</style></defs><g id="Layer_2" data-name="Layer 2"><g id="Layer_1-2" data-name="Layer 1-2"><path id="vpn_key" data-name="vpn key" class="cls-1" d="M22.79,9.12h-.18a4.17,4.17,0,0,0-4.16,4.17V14H4.06a1,1,0,0,0-1,1v4.51a1,1,0,0,0,1,1h.56V16H18.45v.7a4.17,4.17,0,0,0,4.16,4.17h.18A4.19,4.19,0,0,0,27,16.71V13.29A4.19,4.19,0,0,0,22.79,9.12Zm2.14,7.59a2.14,2.14,0,0,1-2.14,2.14h-.18a2.14,2.14,0,0,1-2.14-2.14V13.29a2.14,2.14,0,0,1,2.14-2.14h.18a2.14,2.14,0,0,1,2.14,2.14Z"/></g></g><path class="cls-2" d="M11.55,16v3.5a1,1,0,0,1-1,1H4.62V16Z"/></svg>