<svg id="Layer_1" data-name="Layer 1" xmlns="http://www.w3.org/2000/svg" xmlns:xlink="http://www.w3.org/1999/xlink" viewBox="0 0 55 55"><defs><style>.cls-1{fill:url(#linear-gradient);}.cls-2{fill:#6152bd;}.cls-3{fill:#897ae3;}</style><linearGradient id="linear-gradient" x1="50.58" y1="27.69" x2="4.32" y2="27.31" gradientUnits="userSpaceOnUse"><stop offset="0" stop-color="#eeecf8"/><stop offset="1" stop-color="#f6f5fc"/></linearGradient></defs><rect class="cls-1" x="3.5" y="3.5" width="48" height="48" rx="10"/><g id="Layer_2" data-name="Layer 2"><g id="Layer_1-2" data-name="Layer 1-2"><path class="cls-2" d="M33.06,30.76V36.4a.59.59,0,0,1-.6.59H22.53a.59.59,0,0,1-.6-.59V26.86l-1.66,1.7a0,0,0,0,0,0,0,.59.59,0,0,1-.84,0L16.36,25.5a.59.59,0,0,1,0-.85l4-4a6.52,6.52,0,0,1,3.13-1.41A8.47,8.47,0,0,0,23,22a8.87,8.87,0,0,0,8.85,8.85A9.39,9.39,0,0,0,33.06,30.76Z"/></g></g><path class="cls-3" d="M38.64,25.48l-3.06,3.06h0a.6.6,0,0,1-.84,0l-1.67-1.68v3.9a9.39,9.39,0,0,1-1.19.08A8.87,8.87,0,0,1,23,22a8.47,8.47,0,0,1,.44-2.72c3.75-.87,9.3-.51,11.21,1.4l4,4A.58.58,0,0,1,38.64,25.48Z"/></svg>