<svg id="Layer_1" data-name="Layer 1" xmlns="http://www.w3.org/2000/svg" viewBox="0 0 60 60"><defs><style>.cls-1{fill:#8185a7;}.cls-2{fill:#b1b4d3;}</style></defs><g id="Layer_2" data-name="Layer 2"><g id="Layer_1-2" data-name="Layer 1-2"><g id="fingerprint-2"><path class="cls-1" d="M22.43,40.31a1.13,1.13,0,0,1,0-2.23,6.64,6.64,0,0,0,6.62-6.64v-4a1.14,1.14,0,0,1,1.32-.91,1.15,1.15,0,0,1,.91.91v4A8.88,8.88,0,0,1,22.43,40.31Z"/><path class="cls-2" d="M30,41.13A1.12,1.12,0,0,1,28.91,40a1.08,1.08,0,0,1,.34-.78,10.41,10.41,0,0,0,3.5-7.75v-4a2.6,2.6,0,0,0-5.2,0v4a5.15,5.15,0,0,1-5.12,5.16,1.11,1.11,0,0,1,0-2.22,2.93,2.93,0,0,0,2.93-2.93V27.4a4.83,4.83,0,1,1,9.65,0v4a12.59,12.59,0,0,1-4.27,9.41A1.09,1.09,0,0,1,30,41.13Z"/><path class="cls-1" d="M34.93,41.13A1.1,1.1,0,0,1,33.82,40a1.13,1.13,0,0,1,.2-.64,13.94,13.94,0,0,0,2.45-7.93v-3.9a6.47,6.47,0,0,0-12.94,0v1.69a1.12,1.12,0,0,1-2.23,0V27.56a8.7,8.7,0,0,1,17.4,0v3.88a16.14,16.14,0,0,1-2.85,9.2A1.09,1.09,0,0,1,34.93,41.13Z"/></g></g></g></svg>