<svg id="Layer_1" data-name="Layer 1" xmlns="http://www.w3.org/2000/svg" viewBox="0 0 60 60"><defs><style>.cls-1{fill:#b1b4d3;}.cls-2{fill:#8185a7;}</style></defs><path class="cls-1" d="M42,28a5.67,5.67,0,0,1-3.86,5.37.25.25,0,0,0-.21.29c0,.62,0,1.24,0,1.86a1,1,0,0,1-1.55.9l-1.67-1-.13-.07-1.83-1-1.05-.6a.59.59,0,0,0-.26-.07H29.22a7.87,7.87,0,0,1-1.08-.09A5.69,5.69,0,0,1,23.47,28V25.44l.32-2.16a5.56,5.56,0,0,1,4.8-3.76,4.42,4.42,0,0,1,.63,0c2.34,0,4.68,0,7,0a5.68,5.68,0,0,1,5.69,4.84,5.29,5.29,0,0,1,.06.8C42,26.1,42,27.06,42,28Z"/><path class="cls-2" d="M34.57,35.41c-.25.27-.49.54-.75.77A5.55,5.55,0,0,1,30,37.61H28.54a.51.51,0,0,0-.22.06c-1.56.89-3.12,1.78-4.67,2.69a1,1,0,0,1-1.58-.92c0-.64,0-1.28,0-1.93a.15.15,0,0,0-.12-.17,5.6,5.6,0,0,1-3.9-4.72,4,4,0,0,1,0-.69C18,31,18,30,18,29.1a5.69,5.69,0,0,1,4.74-5.62,8.27,8.27,0,0,1,.87-.08.16.16,0,0,0,.17-.12l-.32,2.16V28a5.69,5.69,0,0,0,4.67,5.63,7.87,7.87,0,0,0,1.08.09h2.21a.59.59,0,0,1,.26.07l1.05.6Z"/></svg>