<svg id="Layer_1" data-name="Layer 1" xmlns="http://www.w3.org/2000/svg" xmlns:xlink="http://www.w3.org/1999/xlink" viewBox="0 0 60 60"><defs><style>.cls-1{fill:url(#linear-gradient);}.cls-2{fill:#cc9129;}.cls-3{fill:#edad2e;}</style><linearGradient id="linear-gradient" x1="6" y1="30" x2="54" y2="30" gradientUnits="userSpaceOnUse"><stop offset="0" stop-color="#fff5e3"/><stop offset="1" stop-color="#fff9ee"/></linearGradient></defs><rect class="cls-1" x="6" y="6" width="48" height="48" rx="10"/><g id="Layer_2" data-name="Layer 2"><g id="Layer_1-2" data-name="Layer 1-2"><path id="bag" class="cls-2" d="M39.28,35.57l-.73-4.16H21.22l-.73,4.16a3.43,3.43,0,0,0,2.79,4,3,3,0,0,0,.6.06h12a3.44,3.44,0,0,0,3.41-3.46A2.75,2.75,0,0,0,39.28,35.57Z"/></g></g><path class="cls-3" d="M37.81,27.18a2.32,2.32,0,0,0-2.26-1.9h-1V25.1a4.7,4.7,0,1,0-9.4,0v.18h-1A2.31,2.31,0,0,0,22,27.18l-.74,4.23H38.55Zm-5.16-1.89H27.12v-.18a2.8,2.8,0,0,1,2.77-2.76,2.77,2.77,0,0,1,2.76,2.76Z"/></svg>