<svg id="Layer_1" data-name="Layer 1" xmlns="http://www.w3.org/2000/svg" xmlns:xlink="http://www.w3.org/1999/xlink" viewBox="0 0 60 60"><defs><style>.cls-1{fill:url(#linear-gradient);}.cls-2{fill:#2bdcef;}.cls-3{fill:#14b6d1;}</style><linearGradient id="linear-gradient" x1="3.5" y1="30" x2="53.61" y2="30" gradientUnits="userSpaceOnUse"><stop offset="0" stop-color="#dcf7fb"/><stop offset="1" stop-color="#f3fdfe"/></linearGradient></defs><rect class="cls-1" x="6" y="6" width="48" height="48" rx="10"/><g id="Layer_2" data-name="Layer 2"><g id="Layer_1-2" data-name="Layer 1-2"><path id="scissors" class="cls-2" d="M41.21,36.27v-.08s0-.06,0-.09L41.12,36l0-.07s0-.05-.06-.08l-.07,0-.08-.06,0,0L31.42,30l-2.5,1.55A8.51,8.51,0,0,0,32.64,37a7.86,7.86,0,0,0,4.17,1.14,11.44,11.44,0,0,0,3.79-.69s.06,0,.1-.05l0,0a.83.83,0,0,0,.18-.13l0,0a.83.83,0,0,0,.11-.15l0,0,0,0,0-.09,0-.09a.29.29,0,0,0,0-.09v-.18a.52.52,0,0,0,0-.11.14.14,0,0,0,0-.09A.3.3,0,0,0,41.21,36.27ZM26,26.68a3.7,3.7,0,1,0-3.56,2.67,3.58,3.58,0,0,0,.86-.13,3.64,3.64,0,0,0,1.7-.9L27.78,30c.78-.51,1.16-1,1.14-1.54Zm-2-.12a1.81,1.81,0,1,1,.21-1.36A1.85,1.85,0,0,1,24,26.56Z"/><path class="cls-3" d="M41.21,23.15l0-.08L41.12,23l0,0,0,0L41,22.83,41,22.76l-.07-.06-.08-.05-.08,0-.12-.06c-3-1.06-5.76-.91-8,.45a8.58,8.58,0,0,0-3.73,5.47c0,.51-.36,1-1.14,1.54L25,31.69a3.71,3.71,0,0,0-5.11,5.38A3.79,3.79,0,0,0,21.6,38a3.68,3.68,0,0,0,4.57-3.61A3.82,3.82,0,0,0,26,33.31l2.9-1.77L31.42,30l9.36-5.75,0,0,.07-.06L41,24.1,41,24l.06-.08,0-.07s0-.06.05-.1V23.7a.47.47,0,0,0,.06-.09.17.17,0,0,0,0-.1.14.14,0,0,0,0-.09.14.14,0,0,0,0-.09.14.14,0,0,0,0-.09A.29.29,0,0,0,41.21,23.15Zm-17,11.62a1.83,1.83,0,0,1-.81,1.13,1.78,1.78,0,0,1-1.37.21,1.81,1.81,0,1,1,2.18-1.34Z"/></g></g></svg>