<svg id="Layer_1" data-name="Layer 1" xmlns="http://www.w3.org/2000/svg" xmlns:xlink="http://www.w3.org/1999/xlink" viewBox="0 0 55 55"><defs><style>.cls-1{fill:url(#linear-gradient);}.cls-2{fill:#52bd95;}.cls-3{fill:#5dd6a9;}</style><linearGradient id="linear-gradient" x1="52.04" y1="27.5" x2="8.09" y2="27.5" gradientUnits="userSpaceOnUse"><stop offset="0" stop-color="#f6fef4"/><stop offset="0.6" stop-color="#e6fce1"/></linearGradient></defs><rect class="cls-1" x="3.5" y="3.5" width="48" height="48" rx="10"/><g id="Layer_2" data-name="Layer 2"><g id="Layer_1-2" data-name="Layer 1-2"><g id="layers"><path class="cls-2" d="M27.54,32.7a.94.94,0,0,1-.36-.08l-9.68-4.3a.9.9,0,0,1,.57-1.71l.15.07,9.32,4.14,9.33-4.14a.89.89,0,0,1,1.13.57.9.9,0,0,1-.41,1.07l-9.69,4.3A.86.86,0,0,1,27.54,32.7Z"/><path class="cls-3" d="M27.54,28.4a.94.94,0,0,1-.36-.08L17.5,24A.9.9,0,0,1,17,22.83a.88.88,0,0,1,.46-.45l9.68-4.31a.9.9,0,0,1,.72,0l9.69,4.31a.89.89,0,0,1,0,1.63L27.9,28.32A1.05,1.05,0,0,1,27.54,28.4Z"/><path class="cls-2" d="M27.54,37a.92.92,0,0,1-.36-.07L17.5,32.62a.89.89,0,0,1-.57-1.13.9.9,0,0,1,1.14-.57l.15.07,9.32,4.13L36.87,31a.88.88,0,0,1,1.13.56.9.9,0,0,1-.41,1.07L27.9,36.93A.86.86,0,0,1,27.54,37Z"/></g></g></g></svg>