<svg id="Layer_1" data-name="Layer 1" xmlns="http://www.w3.org/2000/svg" xmlns:xlink="http://www.w3.org/1999/xlink" viewBox="0 0 60 60"><defs><style>.cls-1{fill:url(#linear-gradient);}.cls-2{fill:#6152bd;}.cls-3{fill:#897ae3;}</style><linearGradient id="linear-gradient" x1="6.63" y1="30" x2="52.58" y2="30" gradientUnits="userSpaceOnUse"><stop offset="0" stop-color="#eeecf8"/><stop offset="1" stop-color="#f0eff9"/></linearGradient></defs><rect class="cls-1" x="6" y="6" width="48" height="48" rx="10"/><g id="Layer_2" data-name="Layer 2"><g id="Layer_1-2" data-name="Layer 1-2"><g id="kiosk"><path class="cls-2" d="M39.71,36.18H38.06V29.7a4.21,4.21,0,0,1-3.84-.51,4.22,4.22,0,0,1-4.8,0,4.24,4.24,0,0,1-4.84,0,4.19,4.19,0,0,1-3.85.51v7.4a.92.92,0,0,0,.92.92h1.6a3.14,3.14,0,0,0,6,0h7v.91a.93.93,0,0,0,1.85,0V38h1.65a.93.93,0,1,0,0-1.85ZM26.25,38.4a1.3,1.3,0,1,1,1.3-1.29h0A1.3,1.3,0,0,1,26.25,38.4Z"/><path class="cls-3" d="M24.57,27.06a2.77,2.77,0,0,0,4.83,0,2.76,2.76,0,0,0,3.78,1.05,2.69,2.69,0,0,0,1-1.05,2.79,2.79,0,0,0,5.21-1.39v-.55A3.41,3.41,0,0,0,39,23.48l-1.24-2.13a3.25,3.25,0,0,0-2.79-1.6H23.84a3.25,3.25,0,0,0-2.78,1.6l-1.25,2.13a3.4,3.4,0,0,0-.45,1.64v.55a2.79,2.79,0,0,0,5.21,1.38Z"/></g></g></g></svg>