<svg id="Layer_1" data-name="Layer 1" xmlns="http://www.w3.org/2000/svg" xmlns:xlink="http://www.w3.org/1999/xlink" viewBox="0 0 60 60"><defs><style>.cls-1{fill:url(#linear-gradient);}.cls-2{fill:#6152bd;}.cls-3{fill:#897ae3;}</style><linearGradient id="linear-gradient" x1="53.08" y1="30.19" x2="6.82" y2="29.81" gradientUnits="userSpaceOnUse"><stop offset="0" stop-color="#eeecf8"/><stop offset="1" stop-color="#f6f5fc"/></linearGradient></defs><rect class="cls-1" x="6" y="6" width="48" height="48" rx="10"/><g id="Layer_2" data-name="Layer 2"><g id="Layer_1-2" data-name="Layer 1-2"><path class="cls-2" d="M35.56,33.26V38.9a.59.59,0,0,1-.6.59H25a.59.59,0,0,1-.6-.59V29.36l-1.66,1.7a0,0,0,0,0,0,0,.59.59,0,0,1-.84,0L18.86,28a.59.59,0,0,1,0-.85l4-4A6.52,6.52,0,0,1,26,21.77a8.47,8.47,0,0,0-.44,2.72,8.87,8.87,0,0,0,8.85,8.85A9.39,9.39,0,0,0,35.56,33.26Z"/></g></g><path class="cls-3" d="M41.14,28,38.08,31h0a.6.6,0,0,1-.84,0l-1.67-1.68v3.9a9.39,9.39,0,0,1-1.19.08,8.87,8.87,0,0,1-8.85-8.85A8.47,8.47,0,0,1,26,21.77c3.75-.87,9.3-.51,11.21,1.4l4,4A.58.58,0,0,1,41.14,28Z"/></svg>