<svg id="Layer_1" data-name="Layer 1" xmlns="http://www.w3.org/2000/svg" xmlns:xlink="http://www.w3.org/1999/xlink" viewBox="0 0 60 60"><defs><style>.cls-1{fill:url(#linear-gradient);}.cls-2{fill:#cc9129;}.cls-3{fill:#edad2e;}</style><linearGradient id="linear-gradient" x1="30" y1="5.71" x2="30" y2="53.66" gradientUnits="userSpaceOnUse"><stop offset="0" stop-color="#fff5e3"/><stop offset="1" stop-color="#fff9ee"/></linearGradient></defs><rect class="cls-1" x="6" y="6" width="48" height="48" rx="10"/><g id="Layer_2" data-name="Layer 2"><g id="Layer_1-2" data-name="Layer 1-2"><g id="dropbox"><path class="cls-2" d="M36.3,35.14a2.26,2.26,0,0,1-2.45,0L30,32.65l-3.89,2.49a2.3,2.3,0,0,1-2.45,0L21.9,34V35.7a.94.94,0,0,0,.47.83l7.17,4.07a1,1,0,0,0,.93,0l7.16-4.07a.93.93,0,0,0,.47-.82V34Z"/><path class="cls-3" d="M40.68,29.18l-3.85-2.45,3.85-2.46A.94.94,0,0,0,41,23a.81.81,0,0,0-.29-.29l-5.09-3.25a.94.94,0,0,0-1,0L30,22.35l-4.59-2.92a.93.93,0,0,0-1,0l-5.09,3.24A.94.94,0,0,0,19,24a.81.81,0,0,0,.29.29l3.84,2.43-3.84,2.47a.94.94,0,0,0-.44.79,1,1,0,0,0,.43.8L24.41,34a.92.92,0,0,0,.51.15.89.89,0,0,0,.5-.15L30,31.08,34.55,34a.94.94,0,0,0,1,0l5.1-3.25a.94.94,0,0,0,.29-1.3,1.14,1.14,0,0,0-.29-.29ZM30,30.19l-5.42-3.46L30,23.25l5.45,3.45Z"/></g></g></g></svg>