<svg id="Layer_1" data-name="Layer 1" xmlns="http://www.w3.org/2000/svg" xmlns:xlink="http://www.w3.org/1999/xlink" viewBox="0 0 60 60"><defs><style>.cls-1{fill:url(#linear-gradient);}.cls-2{fill:#52bd95;}.cls-3{fill:#5dd6a9;}</style><linearGradient id="linear-gradient" x1="54.54" y1="30" x2="10.59" y2="30" gradientUnits="userSpaceOnUse"><stop offset="0" stop-color="#f6fef4"/><stop offset="0.6" stop-color="#e6fce1"/></linearGradient></defs><rect class="cls-1" x="6" y="6" width="48" height="48" rx="10"/><g id="Layer_2" data-name="Layer 2"><g id="Layer_1-2" data-name="Layer 1-2"><g id="layers"><path class="cls-2" d="M30,35.2a.94.94,0,0,1-.36-.08L20,30.82a.9.9,0,0,1,.57-1.71l.15.07L30,33.32l9.33-4.14a.89.89,0,0,1,1.13.57.9.9,0,0,1-.41,1.07l-9.69,4.3A.86.86,0,0,1,30,35.2Z"/><path class="cls-3" d="M30,30.9a.94.94,0,0,1-.36-.08L20,26.51a.9.9,0,0,1-.46-1.18.88.88,0,0,1,.46-.45l9.68-4.31a.9.9,0,0,1,.72,0l9.69,4.31a.89.89,0,0,1,0,1.63L30.4,30.82A1.05,1.05,0,0,1,30,30.9Z"/><path class="cls-2" d="M30,39.5a.92.92,0,0,1-.36-.07L20,35.12A.89.89,0,0,1,19.43,34a.9.9,0,0,1,1.14-.57l.15.07L30,37.62l9.33-4.13a.88.88,0,0,1,1.13.56.9.9,0,0,1-.41,1.07L30.4,39.43A.86.86,0,0,1,30,39.5Z"/></g></g></g></svg>