<svg id="Layer_1" data-name="Layer 1" xmlns="http://www.w3.org/2000/svg" xmlns:xlink="http://www.w3.org/1999/xlink" viewBox="0 0 60 60"><defs><style>.cls-1{fill:url(#linear-gradient);}.cls-2{fill:#2bdcef;}.cls-3{fill:#14b6d1;}</style><linearGradient id="linear-gradient" x1="3.3" y1="30" x2="52.84" y2="30" gradientUnits="userSpaceOnUse"><stop offset="0" stop-color="#dcf7fb"/><stop offset="1" stop-color="#f3fdfe"/></linearGradient></defs><rect class="cls-1" x="6" y="6" width="48" height="48" rx="10"/><g id="Layer_2" data-name="Layer 2"><g id="Layer_1-2" data-name="Layer 1-2"><g id="ship"><path class="cls-2" d="M40.08,38.54a3.84,3.84,0,0,0-4.4.73,1.85,1.85,0,0,1-2.61,0h0a3.85,3.85,0,0,0-5.44,0,1.85,1.85,0,0,1-2.61,0h0a3.83,3.83,0,0,0-5.39-.07A1,1,0,0,0,21,40.65a1.87,1.87,0,0,1,2.58,0,3.84,3.84,0,0,0,5.43,0h0a1.87,1.87,0,0,1,2.61,0,3.84,3.84,0,0,0,5.43,0h0a1.84,1.84,0,0,1,2.12-.35,1,1,0,1,0,1-1.75Z"/><path class="cls-3" d="M38.92,29.35l-.8-.3V25.8a1,1,0,0,0-.65-.94L36,24.3v-3a1,1,0,0,0-.61-.92l-5-2.15a1,1,0,0,0-.8,0l-5,2.15a1,1,0,0,0-.61.92v3l-1.5.56a1,1,0,0,0-.64.93V29l-.8.29a1,1,0,0,0-.62,1.2l1.16,4.17-.09,0a4.41,4.41,0,0,1,.84,1.09,5.93,5.93,0,0,1,.71.44l.17,0c.43,0,.85,0,1.28,0,.9,0,1.8-.1,2.7-.15a1.94,1.94,0,0,1,.33-.07c2.26-.32,5.07.21,7.33.22.63-.3.66-1,1.52-1a5.68,5.68,0,0,1,.59,0,5.19,5.19,0,0,1,1.41-.28,3.66,3.66,0,0,1,.18-.46l-.13,0,1.12-4.08A1,1,0,0,0,38.92,29.35ZM26,22l4-1.72L34,22v1.57L30.33,22.2a.94.94,0,0,0-.7,0L26,23.57Zm10.16,6.3-5.8-2.17a.94.94,0,0,0-.7,0L23.82,28.3V26.51L30,24.2l6.15,2.31Z"/><path class="cls-2" d="M40.08,34.57a3.85,3.85,0,0,0-4.4.73,1.85,1.85,0,0,1-2.61,0h0a3.85,3.85,0,0,0-5.44,0,1.85,1.85,0,0,1-2.61,0h0a3.83,3.83,0,0,0-5.39-.07,1,1,0,0,0,0,1.42,1,1,0,0,0,1.34,0,1.86,1.86,0,0,1,2.58,0,3.84,3.84,0,0,0,5.43,0h0a1.85,1.85,0,0,1,2.61,0,3.84,3.84,0,0,0,5.43,0h0a1.84,1.84,0,0,1,2.12-.35,1,1,0,1,0,1-1.76Z"/></g></g></g></svg>