<?xml version="1.0" encoding="utf-8"?>
<!-- Generator: Adobe Illustrator 24.3.0, SVG Export Plug-In . SVG Version: 6.00 Build 0)  -->
<svg version="1.1" id="Layer_2_1_" xmlns="http://www.w3.org/2000/svg" xmlns:xlink="http://www.w3.org/1999/xlink" x="0px" y="0px"
	 viewBox="0 0 79 79" style="enable-background:new 0 0 79 79;" xml:space="preserve">
<style type="text/css">
	.st0{fill:#607AFF;}
	.st1{fill:#4E5DB6;}
</style>
<g id="Layer_2_2_">
	<g id="Layer_1-2">
		<g id="calendar">
			<path class="st0" d="M58.2,13.2H57V7.9C57,6.3,55.7,5,54.1,5s-2.9,1.3-2.9,2.9v5.3H27.8V7.9c0-1.6-1.3-2.9-2.9-2.9
				C23.3,5,22,6.3,22,7.9v5.3h-1.2c-6.8,0-12.3,5.5-12.3,12.3v36.3C8.5,68.5,14,74,20.8,74h37.4c6.8,0,12.3-5.5,12.3-12.3V25.5
				C70.5,18.7,65,13.2,58.2,13.2z M58.2,68.2H20.8c-3.5,0-6.4-2.9-6.4-6.4V34.2h50.3v27.5C64.6,65.3,61.8,68.1,58.2,68.2z"/>
		</g>
	</g>
</g>
<path class="st1" d="M47.7,28.8L26.8,49.7c-0.2,0.2-0.3,0.4-0.3,0.6l-2,7.8c-0.2,0.7,0.2,1.4,0.9,1.6c0.1,0,0.2,0,0.3,0
	c0.1,0,0.2,0,0.3,0l7.8-2c0.2-0.1,0.4-0.2,0.6-0.3l20.9-20.9L47.7,28.8z"/>
<path class="st1" d="M61.5,28.5l-5.8-5.8c-0.5-0.5-1.3-0.5-1.8,0L50,26.5l7.7,7.6l3.9-3.9c0.2-0.2,0.4-0.6,0.4-0.9
	C61.9,29,61.8,28.7,61.5,28.5z"/>
</svg>
