<svg id="Layer_2" data-name="Layer 2" xmlns="http://www.w3.org/2000/svg" viewBox="0 0 78.97 78.97"><defs><style>.cls-1{fill:#2f2f45;}.cls-2{fill:#4e5db6;}.cls-3{fill:#607aff;}</style></defs><rect class="cls-1" x="3.27" y="3.82" width="70" height="70" rx="16"/><g id="Layer_2-2" data-name="Layer 2"><g id="Layer_1-2" data-name="Layer 1-2"><path id="_360_mobile" data-name=" 360 mobile" class="cls-2" d="M52,33.83v4.59c1.72,1,2.74,2.15,2.74,3.18s-.88,2.12-2.74,3.2a17,17,0,0,1-4.1,1.7c-.46.13-.94.26-1.45.38a2.05,2.05,0,0,0,.47,4,2.5,2.5,0,0,0,.47,0,29.82,29.82,0,0,0,3.34-1,16.07,16.07,0,0,0,6-3.56,6.68,6.68,0,0,0,2.13-4.72C58.81,38.51,56.33,35.73,52,33.83ZM39.72,48.34l-5.48-5.48a2.05,2.05,0,0,0-2.9,2.91l1.6,1.6a29.52,29.52,0,0,1-4.26-.87v0a18.05,18.05,0,0,1-4.11-1.81v.08c-1.71-1-2.73-2.17-2.73-3.19s1-2.18,2.73-3.18V33.83c-4.36,1.9-6.84,4.68-6.84,7.77,0,5,6.54,9,15.84,10l-2.23,2.22a2.05,2.05,0,0,0,2.9,2.88l5.48-5.48a2.06,2.06,0,0,0,0-2.91Z"/></g></g><g id="Layer_2-3" data-name="Layer 2"><g id="Layer_1-2-2" data-name="Layer 1-2"><path id="_360_mobile-2" data-name=" 360 mobile" class="cls-3" d="M44.44,20.44H32.12A7.54,7.54,0,0,0,24.58,28V44.71a18.05,18.05,0,0,0,4.11,1.81V28a3.44,3.44,0,0,1,3.43-3.43h.8a2.06,2.06,0,0,0,1.94,1.37H41.7a2,2,0,0,0,1.93-1.37h.81A3.44,3.44,0,0,1,47.87,28V46.5A17,17,0,0,0,52,44.8V28A7.53,7.53,0,0,0,44.44,20.44Z"/></g></g></svg>