<?xml version="1.0" encoding="utf-8"?>
<!-- Generator: Adobe Illustrator 24.3.0, SVG Export Plug-In . SVG Version: 6.00 Build 0)  -->
<svg version="1.1" id="Layer_2_1_" xmlns="http://www.w3.org/2000/svg" xmlns:xlink="http://www.w3.org/1999/xlink" x="0px" y="0px"
	 viewBox="0 0 79 79" style="enable-background:new 0 0 79 79;" xml:space="preserve">
<style type="text/css">
	.st0{fill:#4E5DB6;}
	.st1{fill:#607AFF;}
</style>
<g id="Layer_2_2_">
	<g id="Layer_1-2">
		<g id="rice">
			<path class="st0" d="M68.2,26.5c3.9-4.6,5.4-10.8,3.8-16.6c-0.2-0.9-1-1.6-1.9-1.9c-5.8-1.6-12.1-0.1-16.6,3.8
				C55.6,15.2,56.8,19,57,23C61,23.2,64.8,24.4,68.2,26.5z"/>
			<path class="st1" d="M41.8,38.2c7,0.3,13.4,3.8,17.6,9.4c5-1,9.3-4.1,11.8-8.4c0.4-0.6,0.4-1.4,0-2c-3.1-5.4-8.9-8.8-15.2-8.8
				c-1.8,0-3.5,0.3-5.2,0.8c0.5-1.7,0.8-3.5,0.8-5.2c0-6.3-3.4-12.1-8.8-15.2c-0.6-0.4-1.4-0.4-2,0c-4.4,2.5-7.5,6.9-8.4,11.8
				C38.1,24.7,41.5,31.2,41.8,38.2z"/>
			<path class="st0" d="M56.1,54.3c0.4-0.6,0.4-1.4,0-2c-3.2-5.4-8.9-8.7-15.2-8.7c-1.8,0-3.5,0.3-5.2,0.8c0.5-1.7,0.8-3.5,0.8-5.3
				c0-6.3-3.3-12-8.8-15.2c-0.6-0.4-1.4-0.4-2,0c-8.4,4.9-11.3,15.6-6.4,24c0.8,1.3,1.7,2.5,2.8,3.6c0.4,0.4,0.9,0.8,1.4,1.2
				L8.3,67.9c-1,1-1,2.7,0,3.8c1,1,2.7,1,3.8,0l15.2-15.2c0.4,0.5,0.8,0.9,1.2,1.4c6.8,6.9,18,6.9,24.8,0
				C54.4,56.8,55.3,55.6,56.1,54.3L56.1,54.3z"/>
		</g>
	</g>
</g>
</svg>
