<?xml version="1.0" encoding="utf-8"?>
<!-- Generator: Adobe Illustrator 24.2.3, SVG Export Plug-In . SVG Version: 6.00 Build 0)  -->
<svg version="1.1" id="Layer_2" xmlns="http://www.w3.org/2000/svg" xmlns:xlink="http://www.w3.org/1999/xlink" x="0px" y="0px"
	 viewBox="0 0 79 79" style="enable-background:new 0 0 79 79;" xml:space="preserve">
<style type="text/css">
	.st0{fill:#2F2F45;}
	.st1{fill:#4E5DB6;}
	.st2{fill:#607AFF;}
</style>
<path class="st0" d="M57.3,73.8h-38c-8.8,0-16-7.2-16-16v-38c0-8.8,7.2-16,16-16h38c8.8,0,16,7.2,16,16v38
	C73.3,66.7,66.1,73.8,57.3,73.8z"/>
<g id="Layer_2_3_">
	<g id="Layer_1-2_2_">
		<g id="like">
			<path class="st1" d="M27.2,37.8h-1.4c-2,0-3.7,1.6-3.7,3.7c0,0,0,0,0,0v6.8c0,2,1.6,3.7,3.7,3.7h1.4V37.8z"/>
			<path class="st2" d="M29.9,51.9l2.8,2c1.3,0.9,2.9,1.4,4.5,1.4h10.9c2,0,3.8-1.3,4.5-3.2l4-11.1c0.9-2.5-0.4-5.2-2.9-6.1
				c-0.5-0.2-1.1-0.3-1.6-0.3H43v-4.4c0-3.7-3-6.6-6.6-6.6c-1.4,0-2.5,1.1-2.5,2.5v5.9c0,0.2-0.1,0.5-0.2,0.6l-4,5.1L29.9,51.9z"/>
		</g>
	</g>
</g>
</svg>
