<?xml version="1.0" encoding="utf-8"?>
<!-- Generator: Adobe Illustrator 24.2.3, SVG Export Plug-In . SVG Version: 6.00 Build 0)  -->
<svg version="1.1" id="Layer_2" xmlns="http://www.w3.org/2000/svg" xmlns:xlink="http://www.w3.org/1999/xlink" x="0px" y="0px"
	 viewBox="0 0 79 79" style="enable-background:new 0 0 79 79;" xml:space="preserve">
<style type="text/css">
	.st0{fill:#2F2F45;}
	.st1{fill:#4E5DB6;}
	.st2{fill:#607AFF;}
</style>
<path class="st0" d="M57.3,73.8h-38c-8.8,0-16-7.2-16-16v-38c0-8.8,7.2-16,16-16h38c8.8,0,16,7.2,16,16v38
	C73.3,66.7,66.1,73.8,57.3,73.8z"/>
<g id="Layer_2_1_">
	<g id="Layer_1-2">
		<g id="flashlight">
			<path class="st1" d="M38.7,29.3c-0.3-0.3-0.7-0.3-0.9,0l-3.1,3.1c-1,1-1.6,2.3-1.8,3.7l-0.3,2.3c-0.1,1.1-0.6,2.1-1.4,2.9
				L22,50.5c-1.8,1.8-1.8,4.7,0,6.4c1.8,1.8,4.7,1.8,6.4,0l9.3-9.2c0.8-0.8,1.8-1.3,2.9-1.4l2.3-0.2c1.4-0.2,2.7-0.8,3.7-1.8
				l3.1-3.1c0.3-0.3,0.3-0.7,0-0.9c0,0,0,0,0,0L38.7,29.3z"/>
			<path class="st2" d="M58,31.9c-0.5-0.7-1.5-0.9-2.3-0.4l-3.8,2.7c-0.7,0.5-0.9,1.5-0.4,2.3c0.3,0.4,0.8,0.7,1.4,0.7
				c0.3,0,0.7-0.1,0.9-0.3l3.8-2.7C58.4,33.7,58.5,32.6,58,31.9C58,31.9,58,31.9,58,31.9z"/>
			<path class="st2" d="M42.5,27.5c0.3,0.2,0.6,0.3,0.9,0.3c0.5,0,1-0.3,1.3-0.7l2.7-3.8c0.5-0.7,0.4-1.8-0.4-2.3
				c-0.7-0.5-1.8-0.4-2.3,0.4c0,0,0,0,0,0.1l-2.7,3.8C41.6,26,41.8,27,42.5,27.5C42.5,27.5,42.5,27.5,42.5,27.5z"/>
			<path class="st2" d="M53.7,25.3c-0.6-0.6-1.7-0.6-2.3,0c0,0,0,0,0,0l-3.3,3.3c-0.6,0.6-0.6,1.7,0,2.3c0.3,0.3,0.7,0.5,1.2,0.5
				c0.4,0,0.8-0.2,1.2-0.5l3.3-3.3C54.4,27,54.4,25.9,53.7,25.3C53.7,25.3,53.7,25.3,53.7,25.3z"/>
		</g>
	</g>
</g>
</svg>
