<?xml version="1.0" encoding="utf-8"?>
<!-- Generator: Adobe Illustrator 24.2.3, SVG Export Plug-In . SVG Version: 6.00 Build 0)  -->
<svg version="1.1" id="Layer_2" xmlns="http://www.w3.org/2000/svg" xmlns:xlink="http://www.w3.org/1999/xlink" x="0px" y="0px"
	 viewBox="0 0 79 79" style="enable-background:new 0 0 79 79;" xml:space="preserve">
<style type="text/css">
	.st0{fill:#2F2F45;}
	.st1{fill:#4E5DB6;}
	.st2{fill:#607AFF;}
</style>
<path class="st0" d="M57.3,73.8h-38c-8.8,0-16-7.2-16-16v-38c0-8.8,7.2-16,16-16h38c8.8,0,16,7.2,16,16v38
	C73.3,66.7,66.1,73.8,57.3,73.8z"/>
<g id="Layer_2_3_">
	<g id="Layer_1-2_1_">
		<g id="gps">
			<path class="st1" d="M58.1,37.4h-2.9c-0.9-7.1-6.5-12.7-13.7-13.7v-2.9c0-1.1-0.9-2.1-2.1-2.1s-2.1,0.9-2.1,2.1v2.9
				c-7.1,0.9-12.7,6.5-13.7,13.7h-2.9c-1.1,0-2.1,0.9-2.1,2.1s0.9,2.1,2.1,2.1h2.9c0.9,7.1,6.5,12.7,13.7,13.7v2.9
				c0,1.1,0.9,2.1,2.1,2.1s2.1-0.9,2.1-2.1v-2.9c7.1-0.9,12.7-6.5,13.7-13.7h2.9c1.1,0,2.1-0.9,2.1-2.1S59.3,37.4,58.1,37.4z
				 M39.5,51.2c-6.5,0-11.7-5.3-11.7-11.7S33,27.7,39.5,27.7S51.2,33,51.2,39.5S46,51.2,39.5,51.2L39.5,51.2z"/>
			<circle class="st2" cx="39.5" cy="39.5" r="6.9"/>
		</g>
	</g>
</g>
</svg>
